<?xml version="1.0" encoding="utf-8"?>
<!-- Generator: Adobe Illustrator 24.3.0, SVG Export Plug-In . SVG Version: 6.00 Build 0)  -->
<svg version="1.1" id="Layer_1" xmlns="http://www.w3.org/2000/svg" xmlns:xlink="http://www.w3.org/1999/xlink" x="0px" y="0px"
	 viewBox="0 0 650 318" enable-background="new 0 0 650 318" xml:space="preserve">
<g>
	<rect x="-0.62" y="-0.66" fill="#FDA170" width="651.06" height="317.62"/>
</g>
<g opacity="0.25">
	<rect x="273.66" y="94.76" fill="none" width="215.69" height="70.53"/>
	<path fill="#1F3C57" d="M346.42,135.81c-4.73,0-8.83-1.55-12.3-4.64c-3.48-3.1-5.21-7.53-5.21-13.32c0-6.7,1.94-12.39,5.83-17.07
		c3.89-4.68,8.96-7.02,15.23-7.02c5.02,0,9.14,1.64,12.36,4.91c3.22,3.27,4.83,7.55,4.83,12.85c0,6.76-1.92,12.5-5.74,17.21
		C357.59,133.45,352.59,135.81,346.42,135.81z M346.51,126.49c2.07,0,3.64-0.87,4.72-2.62c1.07-1.75,1.92-4.31,2.55-7.69
		c0.62-3.38,0.94-5.66,0.94-6.86c0-2.05-0.47-3.6-1.42-4.66c-0.95-1.05-2.2-1.58-3.76-1.58c-2.99,0-5.09,2.08-6.3,6.24
		c-1.21,4.16-1.82,7.84-1.82,11.04C341.41,124.45,343.11,126.49,346.51,126.49z"/>
	<path fill="#1F3C57" d="M407.62,94.79l-4.1,24.61c-0.7,4.18-1.63,7.27-2.78,9.27c-1.15,2-3.05,3.62-5.68,4.86
		c-2.64,1.24-5.78,1.86-9.43,1.86c-4.73,0-8.41-1.01-11.04-3.03s-3.96-4.9-3.96-8.63c0-1.27,0.14-2.71,0.41-4.34l4.13-24.61h12.18
		l-4.09,24.61c-0.23,1.35-0.35,2.34-0.35,2.99c0,1.23,0.49,2.2,1.48,2.9s2.17,1.05,3.55,1.05c1.74,0,3.05-0.44,3.95-1.3
		c0.9-0.87,1.56-2.61,1.99-5.23l4.19-25.02H407.62z"/>
	<path fill="#1F3C57" d="M429.93,103.87l-5.19,30.91h-11.62l5.19-30.91h-8.55l1.55-9.2h28.96l-1.52,9.2H429.93z"/>
</g>
<g>
	<rect x="274.17" y="87.1" fill="none" width="215.69" height="70.53"/>
	<path fill="#1F3C57" d="M346.93,128.15c-4.73,0-8.83-1.55-12.3-4.64c-3.48-3.1-5.21-7.53-5.21-13.32c0-6.7,1.94-12.39,5.83-17.07
		c3.89-4.68,8.96-7.02,15.23-7.02c5.02,0,9.14,1.64,12.36,4.91c3.22,3.27,4.83,7.55,4.83,12.85c0,6.76-1.92,12.5-5.74,17.21
		C358.1,125.79,353.1,128.15,346.93,128.15z M347.02,118.83c2.07,0,3.64-0.87,4.72-2.62c1.07-1.75,1.92-4.31,2.55-7.69
		c0.62-3.38,0.94-5.66,0.94-6.86c0-2.05-0.47-3.6-1.42-4.66c-0.95-1.05-2.2-1.58-3.76-1.58c-2.99,0-5.09,2.08-6.3,6.24
		c-1.21,4.16-1.82,7.84-1.82,11.04C341.92,116.79,343.62,118.83,347.02,118.83z"/>
	<path fill="#1F3C57" d="M408.13,87.13l-4.1,24.61c-0.7,4.18-1.63,7.27-2.78,9.27c-1.15,2-3.05,3.62-5.68,4.86
		c-2.64,1.24-5.78,1.86-9.43,1.86c-4.73,0-8.41-1.01-11.04-3.03s-3.96-4.9-3.96-8.63c0-1.27,0.14-2.71,0.41-4.34l4.13-24.61h12.18
		l-4.09,24.61c-0.23,1.35-0.35,2.34-0.35,2.99c0,1.23,0.49,2.2,1.48,2.9s2.17,1.05,3.55,1.05c1.74,0,3.05-0.44,3.95-1.3
		c0.9-0.87,1.56-2.61,1.99-5.23l4.19-25.02H408.13z"/>
	<path fill="#1F3C57" d="M430.44,96.21l-5.19,30.91h-11.62l5.19-30.91h-8.55l1.55-9.2h28.96l-1.52,9.2H430.44z"/>
</g>
<g opacity="0.25">
	<rect x="212.28" y="93.98" fill="none" width="126.13" height="46.98"/>
	<path fill="#1F3C57" d="M250.31,111.59V134h-6.01c-0.49-1.66-1.03-3.06-1.61-4.19c-2.48,3.2-6.15,4.8-11.02,4.8
		c-5.16,0-9.39-1.8-12.71-5.41c-3.32-3.6-4.98-8.48-4.98-14.63c0-5.98,1.61-11,4.82-15.07c3.21-4.07,7.99-6.11,14.34-6.11
		c4.77,0,8.6,1.21,11.51,3.63c2.91,2.42,4.79,5.86,5.65,10.31l-11.89,1.17c-0.59-4.16-2.41-6.24-5.48-6.24
		c-4.02,0-6.04,3.83-6.04,11.48c0,4.63,0.64,7.68,1.93,9.16c1.29,1.48,2.85,2.21,4.69,2.21c1.48,0,2.75-0.45,3.79-1.35
		c1.04-0.9,1.58-2.13,1.6-3.69h-6.62v-8.5H250.31z"/>
	<path fill="#1F3C57" d="M286.87,124.45V134h-30.09V94.01h30.09v9.23h-18.05v5.8h14.59v8.88h-14.59v6.53H286.87z"/>
	<path fill="#1F3C57" d="M308.17,103.59V134h-11.63v-30.41h-8.29v-9.58h28.21v9.58H308.17z"/>
</g>
<g>
	<rect x="210.72" y="89.42" fill="none" width="126.13" height="46.98"/>
	<path fill="#1F3C57" d="M248.75,107.02v22.41h-6.01c-0.49-1.66-1.03-3.06-1.61-4.19c-2.48,3.2-6.15,4.8-11.02,4.8
		c-5.16,0-9.39-1.8-12.71-5.41c-3.32-3.6-4.98-8.48-4.98-14.63c0-5.98,1.61-11,4.82-15.07c3.21-4.07,7.99-6.11,14.34-6.11
		c4.77,0,8.6,1.21,11.51,3.63c2.91,2.42,4.79,5.86,5.65,10.31l-11.89,1.17c-0.59-4.16-2.41-6.24-5.48-6.24
		c-4.02,0-6.04,3.83-6.04,11.48c0,4.63,0.64,7.68,1.93,9.16c1.29,1.48,2.85,2.21,4.69,2.21c1.48,0,2.75-0.45,3.79-1.35
		c1.04-0.9,1.58-2.13,1.6-3.69h-6.62v-8.5H248.75z"/>
	<path fill="#1F3C57" d="M285.31,119.88v9.55h-30.09V89.45h30.09v9.23h-18.05v5.8h14.59v8.88h-14.59v6.53H285.31z"/>
	<path fill="#1F3C57" d="M306.61,99.03v30.41h-11.63V99.03h-8.29v-9.58h28.21v9.58H306.61z"/>
</g>
<g>
	<rect x="164.17" y="136.64" fill="none" width="319.15" height="44.94"/>
	<path fill="#1F3C57" d="M276.35,145.31c1.94,0,2.91,0.23,2.91,0.68c0,0.52-0.44,0.8-1.31,0.84c-1.05,0.07-2.04,0.36-2.95,0.9
		c-0.91,0.53-1.72,1.26-2.43,2.19c-0.71,0.92-1.26,1.97-1.66,3.12c-0.4,1.16-0.6,2.38-0.6,3.67c0,1.42,0.33,2.56,1,3.43
		c0.66,0.87,1.53,1.3,2.6,1.3c0.99,0,1.86-0.51,2.6-1.52s1.11-2.2,1.11-3.55c0-1.11-0.23-2.15-0.69-3.12
		c-0.46-0.97-1.14-1.79-2.02-2.45c-0.38-0.3-0.57-0.51-0.57-0.64c0-0.18,0.27-0.46,0.8-0.84c0.6-0.4,1.27-0.74,2.01-1.02
		s1.37-0.41,1.88-0.41c0.59,0,1.14,0.15,1.67,0.46c0.53,0.31,0.99,0.74,1.4,1.31c0.4,0.57,0.71,1.22,0.93,1.95
		c0.21,0.74,0.32,1.52,0.32,2.35c0,1.38-0.26,2.74-0.78,4.09c-0.52,1.35-1.2,2.44-2.05,3.27c-1.09,1.05-2.41,1.92-3.96,2.59
		c-1.54,0.67-3.01,1.01-4.4,1.01c-1.35,0-2.7-0.23-4.03-0.7c-1.33-0.47-2.39-1.09-3.17-1.86c-1.04-1.04-1.56-2.52-1.56-4.43
		c0-1.51,0.37-3.02,1.11-4.53c0.74-1.51,1.75-2.88,3.02-4.11s2.67-2.2,4.2-2.91C273.24,145.67,274.79,145.31,276.35,145.31z"/>
	<path fill="#1F3C57" d="M292.19,160.76l-0.04,1.07c-0.18,2.59-0.42,4.7-0.7,6.33s-0.61,2.62-0.98,2.99
		c-0.49,0.53-1.27,0.8-2.32,0.8c-1.13,0-1.94-0.22-2.44-0.66c-0.2-0.22-0.33-0.42-0.39-0.61s-0.1-0.51-0.1-1v-0.18v-0.2v-0.23
		c0.04-3.66,0.39-7.34,1.05-11.04c0.66-3.7,1.54-7.07,2.64-10.11c1.09-3.04,2.29-5.45,3.59-7.23c1.3-1.78,2.6-2.67,3.89-2.67
		c0.59,0,1.03,0.2,1.32,0.6c0.29,0.4,0.44,0.97,0.44,1.71c0,1.11-0.12,2.28-0.35,3.53c-0.23,1.24-0.52,2.26-0.85,3.04
		s-0.67,1.17-1.01,1.17c-0.31,0-0.47-0.55-0.47-1.64v-0.37v-0.23c0-1.09-0.02-1.81-0.07-2.15c-0.04-0.34-0.15-0.57-0.3-0.68
		c-0.14,0.29-0.25,0.62-0.31,1c-0.32,1.56-0.57,2.98-0.77,4.24c-0.2,1.26-0.49,3.31-0.89,6.15c-0.01,0.16-0.03,0.33-0.06,0.53
		c-0.03,0.2-0.05,0.37-0.06,0.53h0.27c0.16-0.01,0.3-0.02,0.43-0.03c0.13-0.01,0.33-0.01,0.61-0.01c0.5-0.06,0.94-0.1,1.33-0.1
		c1.55,0,2.33,0.4,2.33,1.21c0,0.42-0.15,0.92-0.44,1.51c-0.29,0.59-0.64,1.08-1.05,1.48c-0.4,0.39-0.86,0.67-1.38,0.85
		c-0.52,0.18-1.25,0.3-2.22,0.36c-0.21,0-0.35,0-0.44,0.01C292.39,160.74,292.29,160.75,292.19,160.76z"/>
	<path fill="#1F3C57" d="M322.83,151.56l0.25-0.84c0.34-1.3,0.85-2.3,1.54-3.01c0.44-0.44,0.95-0.81,1.52-1.09
		c0.57-0.29,1.09-0.43,1.56-0.43c0.86,0,1.29,0.36,1.29,1.09c0,0.36-0.12,0.93-0.35,1.7c-0.23,0.77-0.54,1.64-0.93,2.61
		c-0.38,0.97-0.83,2.03-1.35,3.19c-0.52,1.16-1.08,2.35-1.71,3.57c-1.13,2.32-2.28,4.28-3.44,5.88c-0.83,1.15-1.68,2.16-2.54,3.05
		c-0.86,0.89-1.76,1.68-2.71,2.38c-0.94,0.7-1.84,1.23-2.68,1.59c-0.84,0.36-1.61,0.54-2.32,0.54c-0.59,0-0.88-0.25-0.88-0.76
		c0-0.4,0.09-0.89,0.27-1.45c0.18-0.56,0.44-1.09,0.76-1.58c0.35-0.47,0.8-0.89,1.33-1.25c0.68-0.47,1.68-1,2.99-1.6
		c-0.78-1.31-1.38-2.36-1.78-3.12c-0.4-0.77-0.85-1.72-1.33-2.87c-1.07-2.54-1.6-4.84-1.6-6.91c0-1.58,0.2-2.86,0.59-3.85
		c0.35-0.85,1-1.45,1.93-1.8c0.75-0.3,1.43-0.45,2.03-0.45c0.85,0,1.42,0.32,1.71,0.97s0.55,2.15,0.77,4.52
		c0.24,2.54,0.62,5.05,1.14,7.52c0.09,0.38,0.2,0.9,0.31,1.56h0.08c0.35-0.77,0.74-1.7,1.15-2.79c0.13-0.31,0.59-1.46,1.37-3.46
		C322.28,153.28,322.61,152.31,322.83,151.56z"/>
	<path fill="#1F3C57" d="M343.35,145.31c1.94,0,2.91,0.23,2.91,0.68c0,0.52-0.44,0.8-1.31,0.84c-1.05,0.07-2.04,0.36-2.95,0.9
		c-0.91,0.53-1.72,1.26-2.43,2.19c-0.71,0.92-1.26,1.97-1.66,3.12c-0.4,1.16-0.6,2.38-0.6,3.67c0,1.42,0.33,2.56,1,3.43
		c0.66,0.87,1.53,1.3,2.6,1.3c0.99,0,1.86-0.51,2.6-1.52s1.11-2.2,1.11-3.55c0-1.11-0.23-2.15-0.69-3.12
		c-0.46-0.97-1.14-1.79-2.02-2.45c-0.38-0.3-0.57-0.51-0.57-0.64c0-0.18,0.27-0.46,0.8-0.84c0.6-0.4,1.27-0.74,2.01-1.02
		s1.37-0.41,1.88-0.41c0.59,0,1.14,0.15,1.67,0.46c0.53,0.31,0.99,0.74,1.4,1.31c0.4,0.57,0.71,1.22,0.93,1.95
		c0.21,0.74,0.32,1.52,0.32,2.35c0,1.38-0.26,2.74-0.78,4.09c-0.52,1.35-1.21,2.44-2.05,3.27c-1.09,1.05-2.41,1.92-3.96,2.59
		c-1.54,0.67-3.01,1.01-4.4,1.01c-1.35,0-2.7-0.23-4.03-0.7c-1.33-0.47-2.39-1.09-3.17-1.86c-1.04-1.04-1.56-2.52-1.56-4.43
		c0-1.51,0.37-3.02,1.11-4.53c0.74-1.51,1.75-2.88,3.02-4.11s2.67-2.2,4.2-2.91C340.24,145.67,341.78,145.31,343.35,145.31z"/>
	<path fill="#1F3C57" d="M364.07,158.85l-0.33,0.27c-0.07,0.04-0.5,0.37-1.31,1c-1.56,1.22-2.85,2.19-3.87,2.9
		c-1.02,0.71-1.86,1.23-2.54,1.56c-0.68,0.33-1.22,0.5-1.64,0.5c-0.7,0-1.27-0.29-1.69-0.87c-0.42-0.58-0.63-1.33-0.63-2.26
		c0-1.56,0.23-3.38,0.7-5.46c0.47-2.08,1.1-4.12,1.89-6.14c0.87-2.24,1.94-3.61,3.2-4.1c0.44-0.2,0.96-0.29,1.56-0.29
		c0.82,0,1.48,0.25,1.99,0.76s0.76,1.18,0.76,2.01c-0.01,0.57-0.11,1.18-0.3,1.82c-0.2,0.64-0.51,1.4-0.94,2.28l-0.24,0.57
		c-1.12,2.37-1.68,3.81-1.68,4.32c0,0.3,0.1,0.45,0.31,0.45c0.2,0,0.45-0.14,0.76-0.41s0.79-0.77,1.45-1.5
		c0.4-0.49,0.98-1.11,1.72-1.86l0.72-0.72l0.63-0.66c1.32-1.3,2.39-2.24,3.23-2.82c0.83-0.58,1.53-0.87,2.07-0.87
		c1.04,0,1.56,0.91,1.56,2.71c0,0.38-0.05,1.05-0.14,2.01c-0.16,1.88-0.23,3.46-0.23,4.77c0.01,0.26,0.02,0.5,0.03,0.71
		c0.01,0.21,0.01,0.49,0.01,0.83c0.09,0.87,0.16,1.54,0.2,2.01l0.14,1.11c0,0.39-0.35,0.74-1.05,1.04c-0.7,0.3-1.52,0.45-2.44,0.45
		c-0.85,0-1.57-0.17-2.18-0.5s-1.06-0.82-1.38-1.47c-0.31-0.65-0.47-1.45-0.47-2.38c0-0.12,0.01-0.32,0.04-0.62
		C364.02,159.7,364.04,159.32,364.07,158.85z"/>
	<path fill="#1F3C57" d="M379.85,159l-0.08,0.39c0,0.22-0.03,0.54-0.08,0.96c-0.05,0.64-0.12,1.16-0.21,1.56
		c-0.09,0.4-0.23,0.74-0.41,1.01c-0.18,0.27-0.43,0.55-0.74,0.85c-0.95,0.87-1.91,1.31-2.87,1.31c-0.78,0-1.36-0.29-1.73-0.86
		c-0.37-0.57-0.56-1.5-0.56-2.77c0-1.02,0.11-2.27,0.34-3.76c0.23-1.49,0.5-2.83,0.83-4.01l0.16-0.51c0-0.08,0.04-0.24,0.12-0.49
		c0.48-1.77,0.92-3.08,1.33-3.94c0.4-0.85,0.89-1.54,1.46-2.06c0.51-0.4,1.08-0.61,1.72-0.61c0.92,0,1.48,0.56,1.68,1.68
		c0.18-0.16,0.36-0.34,0.53-0.55c0.38-0.46,0.67-0.76,0.88-0.91c0.21-0.15,0.45-0.22,0.72-0.22c1.12,0,1.68,1.11,1.68,3.32
		c0,1.21-0.13,2.38-0.39,3.52c-0.26,1.13-0.59,2.06-0.99,2.77c-0.4,0.72-0.79,1.07-1.18,1.07c-0.43,0-0.64-0.81-0.64-2.44
		c0-0.86-0.05-1.53-0.15-2.02s-0.25-0.87-0.46-1.14c-0.39,0.73-0.64,2.4-0.76,5C379.95,157.66,379.89,158.61,379.85,159z"/>
</g>
<g opacity="0.25">
	<rect x="48.79" y="184.78" fill="none" width="560.68" height="90.38"/>
	<path fill="#1F3C57" d="M135.94,209.33l10.72,1.38c-1.25,4.38-3.39,7.96-6.43,10.75c-3.04,2.79-6.87,4.19-11.5,4.19
		c-5.02,0-9.01-1.7-11.97-5.11s-4.44-7.79-4.44-13.14c0-6.17,1.83-11.64,5.48-16.39c3.65-4.76,8.67-7.13,15.06-7.13
		c4.65,0,8.41,1.43,11.29,4.28c2.88,2.85,4.35,6.62,4.41,11.31l-11.28,0.82c-0.04-2.46-0.42-4.3-1.14-5.51
		c-0.72-1.21-1.94-1.82-3.66-1.82c-2.97,0-5,2.2-6.08,6.59s-1.63,7.85-1.63,10.37c0,4.1,1.6,6.15,4.8,6.15
		c1.58,0,2.86-0.53,3.84-1.58C134.4,213.43,135.24,211.72,135.94,209.33z"/>
	<path fill="#1F3C57" d="M167.7,225.83c-4.73,0-8.83-1.55-12.3-4.64c-3.48-3.1-5.21-7.53-5.21-13.32c0-6.7,1.94-12.39,5.83-17.07
		c3.89-4.68,8.96-7.02,15.23-7.02c5.02,0,9.14,1.64,12.36,4.91s4.83,7.55,4.83,12.85c0,6.76-1.91,12.5-5.74,17.21
		C178.87,223.47,173.87,225.83,167.7,225.83z M167.79,216.51c2.07,0,3.64-0.87,4.72-2.62c1.07-1.75,1.92-4.31,2.55-7.69
		c0.62-3.38,0.94-5.66,0.94-6.86c0-2.05-0.47-3.6-1.42-4.66c-0.95-1.05-2.2-1.58-3.76-1.58c-2.99,0-5.09,2.08-6.3,6.24
		c-1.21,4.16-1.82,7.84-1.82,11.04C162.69,214.47,164.39,216.51,167.79,216.51z"/>
	<path fill="#1F3C57" d="M240.72,184.81l-6.68,39.99h-11.26l3.57-21.3c0.37-2.19,0.85-4.47,1.44-6.86c0.47-1.93,0.79-3.41,0.97-4.42
		c-0.23,0.61-0.58,1.52-1.03,2.75c-0.96,2.56-1.84,4.75-2.64,6.56l-10.35,23.26h-7.21l-2.75-23.26c-0.25-2.05-0.43-4.24-0.53-6.56
		c-0.08-1.39-0.16-2.46-0.23-3.22c-0.55,5.53-1.15,10.29-1.81,14.3l-3.13,18.75h-9.06l6.67-39.99h16.09l2.15,17.7
		c0.18,1.45,0.33,2.47,0.47,3.08c0.27-0.9,0.68-1.92,1.2-3.08l7.92-17.7H240.72z"/>
	<path fill="#1F3C57" d="M269.42,200.84l-1.46,8.73h-12.81l-2.56,15.23h-11.61l6.68-39.99h28.18l-1.52,8.99h-16.52l-1.18,7.03
		H269.42z"/>
	<path fill="#1F3C57" d="M291.69,225.83c-4.73,0-8.83-1.55-12.3-4.64s-5.21-7.53-5.21-13.32c0-6.7,1.94-12.39,5.83-17.07
		s8.96-7.02,15.23-7.02c5.02,0,9.14,1.64,12.36,4.91s4.83,7.55,4.83,12.85c0,6.76-1.91,12.5-5.74,17.21S297.86,225.83,291.69,225.83
		z M291.77,216.51c2.07,0,3.64-0.87,4.72-2.62s1.92-4.31,2.55-7.69c0.62-3.38,0.94-5.66,0.94-6.86c0-2.05-0.47-3.6-1.42-4.66
		s-2.2-1.58-3.76-1.58c-2.99,0-5.09,2.08-6.3,6.24s-1.82,7.84-1.82,11.04C286.68,214.47,288.38,216.51,291.77,216.51z"/>
	<path fill="#1F3C57" d="M343.72,208.04l4.33,16.76h-11.83l-3.52-15.21h-4.73l-2.55,15.21h-11.41l6.68-39.99h17.46
		c4.75,0,8.26,1.04,10.55,3.12s3.43,4.91,3.43,8.48C352.13,202.13,349.33,206.01,343.72,208.04z M329.37,201.28h4.5
		c4.32,0,6.48-1.46,6.48-4.39c0-2.46-1.81-3.69-5.44-3.69h-4.18L329.37,201.28z"/>
	<path fill="#1F3C57" d="M375.72,193.89l-5.19,30.91h-11.62l5.19-30.91h-8.55l1.55-9.2h28.96l-1.52,9.2H375.72z"/>
	<path fill="#1F3C57" d="M429.94,215.92l-1.49,8.88h-32.67l1.38-8.23l20.79-23.09h-15.92l1.46-8.67h30.67l-1.29,7.56l-21.33,23.55
		H429.94z"/>
	<path fill="#1F3C57" d="M451.85,225.83c-4.73,0-8.83-1.55-12.3-4.64s-5.21-7.53-5.21-13.32c0-6.7,1.94-12.39,5.83-17.07
		s8.96-7.02,15.23-7.02c5.02,0,9.14,1.64,12.36,4.91s4.83,7.55,4.83,12.85c0,6.76-1.91,12.5-5.74,17.21S458.02,225.83,451.85,225.83
		z M451.94,216.51c2.07,0,3.64-0.87,4.72-2.62s1.92-4.31,2.55-7.69c0.62-3.38,0.94-5.66,0.94-6.86c0-2.05-0.47-3.6-1.42-4.66
		s-2.2-1.58-3.76-1.58c-2.99,0-5.09,2.08-6.3,6.24s-1.82,7.84-1.82,11.04C446.84,214.47,448.54,216.51,451.94,216.51z"/>
	<path fill="#1F3C57" d="M514.78,184.81l-6.68,39.99h-8.89l-7.67-15.35c-2.09-4.2-3.41-7.52-3.96-9.96
		c0.04,0.59,0.06,1.05,0.06,1.38c0,1.09-0.15,2.54-0.44,4.34l-3.28,19.6h-9.74l6.68-39.99h10.77l4.39,9.26
		c3.05,6.41,5.03,11.14,5.95,14.21c-0.06-0.8-0.09-1.4-0.09-1.79c0-1.13,0.26-3.3,0.79-6.5l2.55-15.17H514.78z"/>
	<path fill="#1F3C57" d="M546.07,215.6l-1.55,9.2h-29.47l6.68-39.99h28.74l-1.46,8.76h-17.16l-1.04,6.27h14.41l-1.46,8.67h-14.39
		l-1.17,7.09H546.07z"/>
</g>
<g>
	<rect x="50.46" y="176.66" fill="none" width="560.68" height="90.38"/>
	<path fill="#1F3C57" d="M137.62,201.21l10.72,1.38c-1.25,4.38-3.39,7.96-6.43,10.75c-3.04,2.79-6.87,4.19-11.5,4.19
		c-5.02,0-9.01-1.7-11.97-5.11c-2.96-3.41-4.44-7.79-4.44-13.14c0-6.17,1.83-11.63,5.48-16.39c3.65-4.76,8.67-7.13,15.06-7.13
		c4.65,0,8.41,1.43,11.29,4.28c2.88,2.85,4.35,6.62,4.41,11.31l-11.28,0.82c-0.04-2.46-0.42-4.3-1.14-5.51
		c-0.72-1.21-1.94-1.82-3.66-1.82c-2.97,0-5,2.2-6.08,6.59s-1.63,7.85-1.63,10.37c0,4.1,1.6,6.15,4.8,6.15
		c1.58,0,2.86-0.53,3.84-1.58C136.07,205.31,136.91,203.59,137.62,201.21z"/>
	<path fill="#1F3C57" d="M169.37,217.7c-4.73,0-8.83-1.55-12.3-4.64c-3.48-3.09-5.21-7.53-5.21-13.32c0-6.7,1.94-12.39,5.83-17.07
		c3.89-4.68,8.96-7.02,15.23-7.02c5.02,0,9.14,1.64,12.36,4.91c3.22,3.27,4.83,7.55,4.83,12.85c0,6.76-1.91,12.5-5.74,17.21
		C180.55,215.34,175.55,217.7,169.37,217.7z M169.46,208.38c2.07,0,3.64-0.87,4.72-2.62c1.07-1.75,1.92-4.31,2.55-7.69
		c0.62-3.38,0.94-5.66,0.94-6.86c0-2.05-0.47-3.6-1.42-4.66c-0.95-1.05-2.2-1.58-3.76-1.58c-2.99,0-5.09,2.08-6.3,6.24
		c-1.21,4.16-1.82,7.84-1.82,11.04C164.36,206.34,166.06,208.38,169.46,208.38z"/>
	<path fill="#1F3C57" d="M242.39,176.69l-6.68,39.99h-11.26l3.57-21.3c0.37-2.19,0.85-4.47,1.44-6.86c0.47-1.93,0.79-3.41,0.97-4.42
		c-0.23,0.61-0.58,1.52-1.03,2.75c-0.96,2.56-1.84,4.75-2.64,6.56l-10.35,23.26h-7.21l-2.75-23.26c-0.25-2.05-0.43-4.24-0.53-6.56
		c-0.08-1.39-0.16-2.46-0.23-3.22c-0.55,5.53-1.15,10.29-1.81,14.3l-3.13,18.75h-9.06l6.67-39.99h16.09l2.15,17.7
		c0.18,1.45,0.33,2.47,0.47,3.08c0.27-0.9,0.68-1.92,1.2-3.08l7.92-17.7H242.39z"/>
	<path fill="#1F3C57" d="M271.09,192.71l-1.46,8.73h-12.81l-2.56,15.23h-11.61l6.68-39.99h28.18l-1.52,8.99h-16.52l-1.18,7.03
		H271.09z"/>
	<path fill="#1F3C57" d="M293.36,217.7c-4.73,0-8.83-1.55-12.3-4.64c-3.48-3.09-5.21-7.53-5.21-13.32c0-6.7,1.94-12.39,5.83-17.07
		c3.89-4.68,8.96-7.02,15.23-7.02c5.02,0,9.14,1.64,12.36,4.91c3.22,3.27,4.83,7.55,4.83,12.85c0,6.76-1.91,12.5-5.74,17.21
		S299.53,217.7,293.36,217.7z M293.45,208.38c2.07,0,3.64-0.87,4.72-2.62c1.07-1.75,1.92-4.31,2.55-7.69
		c0.62-3.38,0.94-5.66,0.94-6.86c0-2.05-0.47-3.6-1.42-4.66s-2.2-1.58-3.76-1.58c-2.99,0-5.09,2.08-6.3,6.24s-1.82,7.84-1.82,11.04
		C288.35,206.34,290.05,208.38,293.45,208.38z"/>
	<path fill="#1F3C57" d="M345.4,199.92l4.33,16.76h-11.83l-3.52-15.21h-4.73l-2.55,15.21h-11.41l6.68-39.99h17.46
		c4.75,0,8.26,1.04,10.55,3.12s3.43,4.91,3.43,8.48C353.8,194.01,351,197.89,345.4,199.92z M331.04,193.15h4.5
		c4.32,0,6.48-1.46,6.48-4.39c0-2.46-1.81-3.69-5.44-3.69h-4.18L331.04,193.15z"/>
	<path fill="#1F3C57" d="M377.4,185.77l-5.19,30.91H360.6l5.19-30.91h-8.55l1.55-9.2h28.96l-1.52,9.2H377.4z"/>
	<path fill="#1F3C57" d="M431.61,207.8l-1.49,8.88h-32.67l1.38-8.23l20.79-23.09h-15.92l1.46-8.67h30.67l-1.29,7.56l-21.33,23.55
		H431.61z"/>
	<path fill="#1F3C57" d="M453.53,217.7c-4.73,0-8.83-1.55-12.3-4.64c-3.48-3.09-5.21-7.53-5.21-13.32c0-6.7,1.94-12.39,5.83-17.07
		c3.89-4.68,8.96-7.02,15.23-7.02c5.02,0,9.14,1.64,12.36,4.91c3.22,3.27,4.83,7.55,4.83,12.85c0,6.76-1.91,12.5-5.74,17.21
		S459.7,217.7,453.53,217.7z M453.61,208.38c2.07,0,3.64-0.87,4.72-2.62c1.07-1.75,1.92-4.31,2.55-7.69
		c0.62-3.38,0.94-5.66,0.94-6.86c0-2.05-0.47-3.6-1.42-4.66s-2.2-1.58-3.76-1.58c-2.99,0-5.09,2.08-6.3,6.24s-1.82,7.84-1.82,11.04
		C448.52,206.34,450.21,208.38,453.61,208.38z"/>
	<path fill="#1F3C57" d="M516.46,176.69l-6.68,39.99h-8.89l-7.67-15.35c-2.09-4.2-3.41-7.52-3.96-9.96
		c0.04,0.59,0.06,1.05,0.06,1.38c0,1.09-0.15,2.54-0.44,4.34l-3.28,19.6h-9.74l6.68-39.99h10.77l4.39,9.26
		c3.05,6.41,5.03,11.14,5.95,14.21c-0.06-0.8-0.09-1.4-0.09-1.79c0-1.13,0.26-3.3,0.79-6.5l2.55-15.17H516.46z"/>
	<path fill="#1F3C57" d="M547.74,207.48l-1.55,9.2h-29.47l6.68-39.99h28.74l-1.46,8.76h-17.16l-1.04,6.27h14.41l-1.46,8.67h-14.39
		l-1.17,7.09H547.74z"/>
</g>
</svg>
