<?xml version="1.0" encoding="utf-8"?>
<!-- Generator: Adobe Illustrator 24.3.0, SVG Export Plug-In . SVG Version: 6.00 Build 0)  -->
<svg version="1.1" id="Layer_1" xmlns="http://www.w3.org/2000/svg" xmlns:xlink="http://www.w3.org/1999/xlink" x="0px" y="0px"
	 viewBox="0 0 650 318" enable-background="new 0 0 650 318" xml:space="preserve">
<g>
	<rect x="-0.5" fill="#E7BDAE" width="650" height="320"/>
</g>
<g>
	<g>
		<rect x="116.05" y="27" fill="none" width="432.45" height="164.98"/>
		<path fill="#1F3C57" d="M175.93,129.5V89.51h15.47c6.72,0,11.75,1.99,15.09,5.98s5.01,8.59,5.01,13.83
			c0,5.98-1.79,10.83-5.38,14.58c-3.58,3.74-8.24,5.61-13.96,5.61H175.93z M188.21,120.3h3.19c2.03,0,3.75-0.99,5.14-2.96
			c1.4-1.97,2.09-4.66,2.09-8.06c0-2.91-0.62-5.42-1.86-7.53c-1.24-2.11-3.03-3.16-5.38-3.16h-3.19V120.3z"/>
		<path fill="#1F3C57" d="M228.96,89.51v39.99h-12.28V89.51H228.96z"/>
		<path fill="#1F3C57" d="M231.8,117.93l11.4-2.05c0.96,3.22,3.42,4.83,7.38,4.83c3.09,0,4.63-0.82,4.63-2.46
			c0-0.86-0.36-1.53-1.07-2.01s-1.99-0.9-3.82-1.27c-7.01-1.34-11.52-3.1-13.51-5.27c-1.99-2.17-2.99-4.72-2.99-7.65
			c0-3.77,1.43-6.91,4.29-9.41c2.86-2.5,6.98-3.75,12.35-3.75c8.14,0,13.53,3.27,16.14,9.81l-10.17,3.08
			c-1.05-2.68-3.19-4.01-6.42-4.01c-2.68,0-4.01,0.83-4.01,2.49c0,0.74,0.3,1.32,0.91,1.73s1.78,0.8,3.52,1.17
			c4.79,1.01,8.19,1.91,10.2,2.69c2.01,0.78,3.69,2.11,5.04,4s2.02,4.11,2.02,6.67c0,4.04-1.64,7.32-4.92,9.84
			c-3.28,2.51-7.59,3.77-12.92,3.77C240.1,130.12,234.09,126.05,231.8,117.93z"/>
		<path fill="#1F3C57" d="M294.38,114.24l11.22,0.67c-0.53,4.9-2.34,8.66-5.43,11.28s-6.9,3.93-11.41,3.93
			c-5.43,0-9.81-1.8-13.15-5.39s-5.01-8.55-5.01-14.88c0-6.27,1.58-11.33,4.75-15.18c3.16-3.85,7.58-5.77,13.24-5.77
			c5.29,0,9.36,1.46,12.2,4.39s4.45,6.82,4.82,11.66l-11.46,0.62c0-2.68-0.51-4.61-1.54-5.8c-1.03-1.19-2.23-1.79-3.62-1.79
			c-3.87,0-5.8,3.89-5.8,11.66c0,4.36,0.5,7.31,1.51,8.88s2.42,2.34,4.23,2.34C292.17,120.86,293.99,118.65,294.38,114.24z"/>
		<path fill="#1F3C57" d="M322.36,89.51v39.99h-12.28V89.51H322.36z"/>
		<path fill="#1F3C57" d="M341.78,114.97v14.53h-12.45V89.51h17.08c4.26,0,7.5,0.49,9.71,1.46c2.22,0.98,3.97,2.47,5.27,4.48
			c1.3,2.01,1.95,4.27,1.95,6.77c0,3.81-1.33,6.88-3.98,9.23s-6.2,3.52-10.63,3.52H341.78z M341.61,106.38h4.1
			c3.61,0,5.42-1.33,5.42-3.98c0-2.5-1.67-3.75-5.01-3.75h-4.51V106.38z"/>
		<path fill="#1F3C57" d="M395.95,119.69v9.81h-28.04V89.51h12.28v30.18H395.95z"/>
		<path fill="#1F3C57" d="M412.51,89.51v39.99h-12.28V89.51H412.51z"/>
		<path fill="#1F3C57" d="M453.67,129.5h-9.99l-10.95-17.67c-1.41-2.27-2.82-5.02-4.25-8.26c0.64,2.58,0.97,4.77,0.97,6.56v19.37
			h-9.96V89.51h11.6l9.32,14.65c1.86,2.91,3.26,5.47,4.22,7.68c-0.62-3.42-0.94-6.91-0.94-10.49V89.51h9.99V129.5z"/>
		<path fill="#1F3C57" d="M490.73,119.95v9.55h-30.09V89.51h30.09v9.23h-18.05v5.8h14.59v8.88h-14.59v6.53H490.73z"/>
	</g>
	<g opacity="0.2">
		<rect x="116.05" y="37.02" fill="none" width="432.45" height="164.98"/>
		<path fill="#1F3C57" d="M175.93,139.52V99.53h15.47c6.72,0,11.75,1.99,15.09,5.98s5.01,8.59,5.01,13.83
			c0,5.98-1.79,10.83-5.38,14.58c-3.58,3.74-8.24,5.61-13.96,5.61H175.93z M188.21,130.32h3.19c2.03,0,3.75-0.99,5.14-2.96
			c1.4-1.97,2.09-4.66,2.09-8.06c0-2.91-0.62-5.42-1.86-7.53c-1.24-2.11-3.03-3.16-5.38-3.16h-3.19V130.32z"/>
		<path fill="#1F3C57" d="M228.96,99.53v39.99h-12.28V99.53H228.96z"/>
		<path fill="#1F3C57" d="M231.8,127.95l11.4-2.05c0.96,3.22,3.42,4.83,7.38,4.83c3.09,0,4.63-0.82,4.63-2.46
			c0-0.86-0.36-1.53-1.07-2.01s-1.99-0.9-3.82-1.27c-7.01-1.34-11.52-3.1-13.51-5.27c-1.99-2.17-2.99-4.72-2.99-7.65
			c0-3.77,1.43-6.91,4.29-9.41c2.86-2.5,6.98-3.75,12.35-3.75c8.14,0,13.53,3.27,16.14,9.81l-10.17,3.08
			c-1.05-2.68-3.19-4.01-6.42-4.01c-2.68,0-4.01,0.83-4.01,2.49c0,0.74,0.3,1.32,0.91,1.73s1.78,0.8,3.52,1.17
			c4.79,1.01,8.19,1.91,10.2,2.69c2.01,0.78,3.69,2.11,5.04,4s2.02,4.11,2.02,6.67c0,4.04-1.64,7.32-4.92,9.84
			c-3.28,2.51-7.59,3.77-12.92,3.77C240.1,140.13,234.09,136.07,231.8,127.95z"/>
		<path fill="#1F3C57" d="M294.38,124.25l11.22,0.67c-0.53,4.9-2.34,8.66-5.43,11.28s-6.9,3.93-11.41,3.93
			c-5.43,0-9.81-1.8-13.15-5.39s-5.01-8.55-5.01-14.88c0-6.27,1.58-11.33,4.75-15.18c3.16-3.85,7.58-5.77,13.24-5.77
			c5.29,0,9.36,1.46,12.2,4.39s4.45,6.82,4.82,11.66l-11.46,0.62c0-2.68-0.51-4.61-1.54-5.8c-1.03-1.19-2.23-1.79-3.62-1.79
			c-3.87,0-5.8,3.89-5.8,11.66c0,4.36,0.5,7.31,1.51,8.88s2.42,2.34,4.23,2.34C292.17,130.88,293.99,128.67,294.38,124.25z"/>
		<path fill="#1F3C57" d="M322.36,99.53v39.99h-12.28V99.53H322.36z"/>
		<path fill="#1F3C57" d="M341.78,124.99v14.53h-12.45V99.53h17.08c4.26,0,7.5,0.49,9.71,1.46c2.22,0.98,3.97,2.47,5.27,4.48
			c1.3,2.01,1.95,4.27,1.95,6.77c0,3.81-1.33,6.88-3.98,9.23s-6.2,3.52-10.63,3.52H341.78z M341.61,116.4h4.1
			c3.61,0,5.42-1.33,5.42-3.98c0-2.5-1.67-3.75-5.01-3.75h-4.51V116.4z"/>
		<path fill="#1F3C57" d="M395.95,129.7v9.81h-28.04V99.53h12.28v30.18H395.95z"/>
		<path fill="#1F3C57" d="M412.51,99.53v39.99h-12.28V99.53H412.51z"/>
		<path fill="#1F3C57" d="M453.67,139.52h-9.99l-10.95-17.67c-1.41-2.27-2.82-5.02-4.25-8.26c0.64,2.58,0.97,4.77,0.97,6.56v19.37
			h-9.96V99.53h11.6l9.32,14.65c1.86,2.91,3.26,5.47,4.22,7.68c-0.62-3.42-0.94-6.91-0.94-10.49V99.53h9.99V139.52z"/>
		<path fill="#1F3C57" d="M490.73,129.97v9.55h-30.09V99.53h30.09v9.23h-18.05v5.8h14.59v8.88h-14.59v6.53H490.73z"/>
	</g>
</g>
<g>
	<g opacity="0.4">
		<rect x="184.38" y="187.86" fill="none" width="274.9" height="62.14"/>
		<path fill="#1F3C57" d="M229.22,197.17l-10.28,2.61c-0.29-1.19-1.03-2.13-2.2-2.81c-1.17-0.68-2.46-1.03-3.87-1.03
			c-2.64,0-3.96,0.88-3.96,2.64c0,0.57,0.19,1.05,0.56,1.46c0.37,0.41,1.42,0.92,3.13,1.53l6.35,2.27c1.66,0.59,3.2,1.45,4.63,2.6
			s2.45,2.39,3.08,3.75c0.63,1.36,0.94,2.81,0.94,4.35c0,4.04-1.59,7.38-4.76,10.01c-3.17,2.63-7.41,3.95-12.7,3.95
			c-4.53,0-8.48-0.92-11.85-2.75c-3.37-1.83-5.72-4.64-7.05-8.41l11.54-2.26c1,2.83,3.46,4.25,7.38,4.25c1.64,0,2.83-0.3,3.56-0.89
			c0.73-0.6,1.1-1.27,1.1-2.04c0-0.49-0.14-0.92-0.42-1.29c-0.28-0.37-0.59-0.64-0.91-0.81c-0.32-0.17-1.84-0.75-4.55-1.75
			c-3.67-1.35-6.24-2.42-7.72-3.22c-1.48-0.79-2.71-1.97-3.69-3.53c-0.99-1.56-1.48-3.4-1.48-5.5c0-3.65,1.34-6.74,4.03-9.27
			c2.69-2.53,6.79-3.79,12.32-3.79c4.22,0,7.83,0.89,10.84,2.67C226.25,191.68,228.24,194.11,229.22,197.17z"/>
		<path fill="#1F3C57" d="M268.71,187.88l-4.1,24.61c-0.7,4.18-1.63,7.27-2.78,9.27c-1.15,2-3.05,3.62-5.68,4.86
			c-2.64,1.24-5.78,1.86-9.43,1.86c-4.73,0-8.41-1.01-11.04-3.03s-3.96-4.9-3.96-8.63c0-1.27,0.14-2.71,0.41-4.34l4.13-24.61h12.18
			l-4.09,24.61c-0.23,1.35-0.35,2.34-0.35,2.99c0,1.23,0.49,2.2,1.48,2.9c0.98,0.7,2.17,1.05,3.55,1.05c1.74,0,3.05-0.43,3.95-1.3
			c0.9-0.87,1.56-2.61,1.99-5.23l4.19-25.02H268.71z"/>
		<path fill="#1F3C57" d="M293.58,212.41l10.72,1.38c-1.25,4.38-3.39,7.96-6.43,10.75c-3.04,2.79-6.87,4.19-11.5,4.19
			c-5.02,0-9.01-1.7-11.97-5.11c-2.96-3.41-4.44-7.79-4.44-13.14c0-6.17,1.83-11.63,5.48-16.39c3.65-4.76,8.67-7.13,15.06-7.13
			c4.65,0,8.41,1.43,11.29,4.28c2.88,2.85,4.35,6.62,4.41,11.31l-11.28,0.82c-0.04-2.46-0.42-4.3-1.14-5.51
			c-0.72-1.21-1.94-1.82-3.66-1.82c-2.97,0-5,2.2-6.08,6.59s-1.63,7.85-1.63,10.37c0,4.1,1.6,6.15,4.8,6.15
			c1.58,0,2.86-0.53,3.84-1.58C292.04,216.51,292.88,214.79,293.58,212.41z"/>
		<path fill="#1F3C57" d="M331.55,212.41l10.72,1.38c-1.25,4.38-3.39,7.96-6.43,10.75c-3.04,2.79-6.87,4.19-11.5,4.19
			c-5.02,0-9.01-1.7-11.97-5.11c-2.96-3.41-4.44-7.79-4.44-13.14c0-6.17,1.83-11.63,5.48-16.39c3.65-4.76,8.67-7.13,15.06-7.13
			c4.65,0,8.41,1.43,11.29,4.28c2.88,2.85,4.35,6.62,4.41,11.31l-11.28,0.82c-0.04-2.46-0.42-4.3-1.14-5.51
			c-0.72-1.21-1.94-1.82-3.66-1.82c-2.97,0-5,2.2-6.08,6.59s-1.63,7.85-1.63,10.37c0,4.1,1.6,6.15,4.8,6.15
			c1.58,0,2.86-0.53,3.84-1.58S330.85,214.79,331.55,212.41z"/>
		<path fill="#1F3C57" d="M375.44,218.68l-1.55,9.2h-29.47l6.68-39.99h28.74l-1.46,8.76h-17.16l-1.04,6.27h14.41l-1.46,8.67h-14.39
			l-1.17,7.09H375.44z"/>
		<path fill="#1F3C57" d="M415.2,197.17l-10.28,2.61c-0.29-1.19-1.03-2.13-2.2-2.81c-1.17-0.68-2.46-1.03-3.87-1.03
			c-2.64,0-3.96,0.88-3.96,2.64c0,0.57,0.19,1.05,0.56,1.46s1.42,0.92,3.13,1.53l6.35,2.27c1.66,0.59,3.2,1.45,4.63,2.6
			c1.43,1.14,2.45,2.39,3.08,3.75c0.62,1.36,0.94,2.81,0.94,4.35c0,4.04-1.59,7.38-4.76,10.01s-7.41,3.95-12.7,3.95
			c-4.53,0-8.48-0.92-11.85-2.75c-3.37-1.83-5.72-4.64-7.05-8.41l11.54-2.26c1,2.83,3.46,4.25,7.38,4.25c1.64,0,2.83-0.3,3.56-0.89
			c0.73-0.6,1.1-1.27,1.1-2.04c0-0.49-0.14-0.92-0.42-1.29c-0.28-0.37-0.59-0.64-0.91-0.81c-0.32-0.17-1.84-0.75-4.55-1.75
			c-3.67-1.35-6.24-2.42-7.72-3.22c-1.48-0.79-2.71-1.97-3.69-3.53c-0.99-1.56-1.48-3.4-1.48-5.5c0-3.65,1.34-6.74,4.03-9.27
			c2.69-2.53,6.79-3.79,12.32-3.79c4.22,0,7.83,0.89,10.84,2.67C412.23,191.68,414.22,194.11,415.2,197.17z"/>
		<path fill="#1F3C57" d="M452.23,197.17l-10.28,2.61c-0.29-1.19-1.03-2.13-2.2-2.81c-1.17-0.68-2.46-1.03-3.87-1.03
			c-2.64,0-3.96,0.88-3.96,2.64c0,0.57,0.19,1.05,0.56,1.46s1.42,0.92,3.13,1.53l6.35,2.27c1.66,0.59,3.2,1.45,4.63,2.6
			c1.43,1.14,2.45,2.39,3.08,3.75c0.62,1.36,0.94,2.81,0.94,4.35c0,4.04-1.59,7.38-4.76,10.01s-7.41,3.95-12.7,3.95
			c-4.53,0-8.48-0.92-11.85-2.75c-3.37-1.83-5.72-4.64-7.05-8.41l11.54-2.26c1,2.83,3.46,4.25,7.38,4.25c1.64,0,2.83-0.3,3.56-0.89
			c0.73-0.6,1.1-1.27,1.1-2.04c0-0.49-0.14-0.92-0.42-1.29c-0.28-0.37-0.59-0.64-0.91-0.81c-0.32-0.17-1.84-0.75-4.55-1.75
			c-3.67-1.35-6.24-2.42-7.72-3.22c-1.48-0.79-2.71-1.97-3.69-3.53c-0.99-1.56-1.48-3.4-1.48-5.5c0-3.65,1.34-6.74,4.03-9.27
			c2.69-2.53,6.79-3.79,12.32-3.79c4.22,0,7.83,0.89,10.84,2.67C449.26,191.68,451.25,194.11,452.23,197.17z"/>
	</g>
	<g>
		<rect x="185.6" y="179.22" fill="none" width="274.9" height="68.62"/>
		<path fill="#1F3C57" d="M230.44,188.54l-10.28,2.61c-0.29-1.19-1.03-2.13-2.2-2.81c-1.17-0.68-2.46-1.03-3.87-1.03
			c-2.64,0-3.96,0.88-3.96,2.64c0,0.57,0.19,1.05,0.56,1.46c0.37,0.41,1.42,0.92,3.13,1.53l6.35,2.27c1.66,0.59,3.2,1.45,4.63,2.6
			s2.45,2.39,3.08,3.75c0.63,1.36,0.94,2.81,0.94,4.35c0,4.04-1.59,7.38-4.76,10.01c-3.17,2.63-7.41,3.95-12.7,3.95
			c-4.53,0-8.48-0.92-11.85-2.75c-3.37-1.83-5.72-4.64-7.05-8.41l11.54-2.26c1,2.83,3.46,4.25,7.38,4.25c1.64,0,2.83-0.3,3.56-0.89
			c0.73-0.6,1.1-1.27,1.1-2.04c0-0.49-0.14-0.92-0.42-1.29c-0.28-0.37-0.59-0.64-0.91-0.81c-0.32-0.17-1.84-0.75-4.55-1.75
			c-3.67-1.35-6.24-2.42-7.72-3.22c-1.48-0.79-2.71-1.97-3.69-3.53c-0.99-1.56-1.48-3.4-1.48-5.5c0-3.65,1.34-6.74,4.03-9.27
			c2.69-2.53,6.79-3.79,12.32-3.79c4.22,0,7.83,0.89,10.84,2.67C227.47,183.05,229.46,185.47,230.44,188.54z"/>
		<path fill="#1F3C57" d="M269.93,179.25l-4.1,24.61c-0.7,4.18-1.63,7.27-2.78,9.27c-1.15,2-3.05,3.62-5.68,4.86
			c-2.64,1.24-5.78,1.86-9.43,1.86c-4.73,0-8.41-1.01-11.04-3.03s-3.96-4.9-3.96-8.63c0-1.27,0.14-2.71,0.41-4.34l4.13-24.61h12.18
			l-4.09,24.61c-0.23,1.35-0.35,2.34-0.35,2.99c0,1.23,0.49,2.2,1.48,2.9c0.98,0.7,2.17,1.05,3.55,1.05c1.74,0,3.05-0.43,3.95-1.3
			c0.9-0.87,1.56-2.61,1.99-5.23l4.19-25.02H269.93z"/>
		<path fill="#1F3C57" d="M294.81,203.77l10.72,1.38c-1.25,4.38-3.39,7.96-6.43,10.75c-3.04,2.79-6.87,4.19-11.5,4.19
			c-5.02,0-9.01-1.7-11.97-5.11c-2.96-3.41-4.44-7.79-4.44-13.14c0-6.17,1.83-11.63,5.48-16.39c3.65-4.76,8.67-7.13,15.06-7.13
			c4.65,0,8.41,1.43,11.29,4.28c2.88,2.85,4.35,6.62,4.41,11.31l-11.28,0.82c-0.04-2.46-0.42-4.3-1.14-5.51
			c-0.72-1.21-1.94-1.82-3.66-1.82c-2.97,0-5,2.2-6.08,6.59s-1.63,7.85-1.63,10.37c0,4.1,1.6,6.15,4.8,6.15
			c1.58,0,2.86-0.53,3.84-1.58C293.26,207.87,294.1,206.15,294.81,203.77z"/>
		<path fill="#1F3C57" d="M332.77,203.77l10.72,1.38c-1.25,4.38-3.39,7.96-6.43,10.75c-3.04,2.79-6.87,4.19-11.5,4.19
			c-5.02,0-9.01-1.7-11.97-5.11c-2.96-3.41-4.44-7.79-4.44-13.14c0-6.17,1.83-11.63,5.48-16.39c3.65-4.76,8.67-7.13,15.06-7.13
			c4.65,0,8.41,1.43,11.29,4.28c2.88,2.85,4.35,6.62,4.41,11.31l-11.28,0.82c-0.04-2.46-0.42-4.3-1.14-5.51
			c-0.72-1.21-1.94-1.82-3.66-1.82c-2.97,0-5,2.2-6.08,6.59s-1.63,7.85-1.63,10.37c0,4.1,1.6,6.15,4.81,6.15
			c1.58,0,2.86-0.53,3.84-1.58S332.07,206.15,332.77,203.77z"/>
		<path fill="#1F3C57" d="M376.66,210.04l-1.55,9.2h-29.47l6.68-39.99h28.74l-1.46,8.76h-17.16l-1.04,6.27h14.41l-1.46,8.67h-14.39
			l-1.17,7.09H376.66z"/>
		<path fill="#1F3C57" d="M416.42,188.54l-10.28,2.61c-0.29-1.19-1.03-2.13-2.2-2.81c-1.17-0.68-2.46-1.03-3.87-1.03
			c-2.64,0-3.96,0.88-3.96,2.64c0,0.57,0.19,1.05,0.56,1.46s1.42,0.92,3.13,1.53l6.35,2.27c1.66,0.59,3.2,1.45,4.63,2.6
			c1.43,1.14,2.45,2.39,3.08,3.75c0.62,1.36,0.94,2.81,0.94,4.35c0,4.04-1.59,7.38-4.76,10.01s-7.41,3.95-12.7,3.95
			c-4.53,0-8.48-0.92-11.85-2.75c-3.37-1.83-5.72-4.64-7.05-8.41l11.54-2.26c1,2.83,3.46,4.25,7.38,4.25c1.64,0,2.83-0.3,3.56-0.89
			c0.73-0.6,1.1-1.27,1.1-2.04c0-0.49-0.14-0.92-0.42-1.29c-0.28-0.37-0.59-0.64-0.91-0.81c-0.32-0.17-1.84-0.75-4.55-1.75
			c-3.67-1.35-6.24-2.42-7.72-3.22c-1.48-0.79-2.71-1.97-3.69-3.53c-0.99-1.56-1.48-3.4-1.48-5.5c0-3.65,1.34-6.74,4.03-9.27
			c2.69-2.53,6.79-3.79,12.32-3.79c4.22,0,7.83,0.89,10.84,2.67C413.45,183.05,415.44,185.47,416.42,188.54z"/>
		<path fill="#1F3C57" d="M453.45,188.54l-10.28,2.61c-0.29-1.19-1.03-2.13-2.2-2.81c-1.17-0.68-2.46-1.03-3.87-1.03
			c-2.64,0-3.96,0.88-3.96,2.64c0,0.57,0.19,1.05,0.56,1.46s1.42,0.92,3.13,1.53l6.35,2.27c1.66,0.59,3.2,1.45,4.63,2.6
			c1.43,1.14,2.45,2.39,3.08,3.75c0.62,1.36,0.94,2.81,0.94,4.35c0,4.04-1.59,7.38-4.76,10.01s-7.41,3.95-12.7,3.95
			c-4.53,0-8.48-0.92-11.85-2.75c-3.37-1.83-5.72-4.64-7.05-8.41l11.54-2.26c1,2.83,3.46,4.25,7.38,4.25c1.64,0,2.83-0.3,3.56-0.89
			c0.73-0.6,1.1-1.27,1.1-2.04c0-0.49-0.14-0.92-0.42-1.29c-0.28-0.37-0.59-0.64-0.91-0.81c-0.32-0.17-1.84-0.75-4.55-1.75
			c-3.67-1.35-6.24-2.42-7.72-3.22c-1.48-0.79-2.71-1.97-3.69-3.53c-0.99-1.56-1.48-3.4-1.48-5.5c0-3.65,1.34-6.74,4.03-9.27
			c2.69-2.53,6.79-3.79,12.32-3.79c4.22,0,7.83,0.89,10.84,2.67C450.48,183.05,452.47,185.47,453.45,188.54z"/>
	</g>
</g>
<g>
	<rect x="204.65" y="63.15" fill="none" width="1.53" height="4.6"/>
</g>
<g>
	<rect x="196.12" y="139.72" fill="none" width="255.38" height="55.28"/>
	<path fill="#1F3C57" d="M274.91,161.45c0.14,0.74,0.62,1.11,1.45,1.11c0.93,0,2.13-0.54,3.62-1.63c0.87-0.63,1.45-0.95,1.74-0.95
		c0.37,0,0.72,0.1,1.04,0.3c0.32,0.2,0.48,0.4,0.48,0.61c0,0.22-0.18,0.51-0.54,0.87c-0.66,0.66-1.41,1.3-2.26,1.92
		c-0.85,0.62-1.68,1.14-2.47,1.56c-0.79,0.42-1.58,0.74-2.38,0.98c-0.79,0.24-1.5,0.36-2.12,0.36c-1.55,0-2.78-0.44-3.71-1.33
		s-1.39-2.06-1.39-3.54c0-1.12,0.24-2.4,0.73-3.81c0.49-1.42,1.15-2.74,1.98-3.98c0.98-1.45,2.18-2.65,3.6-3.62
		c1.76-1.16,3.44-1.74,5.05-1.74c1.16,0,2.07,0.37,2.74,1.1c0.66,0.74,0.99,1.75,0.99,3.03c0,1-0.26,2.05-0.79,3.14
		c-0.53,1.09-1.3,2.13-2.33,3.14c-0.84,0.84-1.67,1.5-2.48,1.97c-0.81,0.47-1.52,0.71-2.12,0.71
		C275.47,161.65,275.19,161.59,274.91,161.45z M274.87,160.86c0.57-0.38,1-0.77,1.3-1.15c0.66-0.8,1.16-1.73,1.52-2.76
		c0.28-0.68,0.51-1.44,0.67-2.28c0.16-0.84,0.24-1.63,0.24-2.36c0-0.68-0.14-1.02-0.43-1.02c-0.4,0-1,0.87-1.82,2.62
		c-0.48,1.05-0.88,2.1-1.18,3.15c-0.3,1.05-0.45,1.95-0.45,2.7C274.72,160,274.77,160.38,274.87,160.86z"/>
	<path fill="#1F3C57" d="M295.5,163.14l-0.72,0.59c-0.79,0.62-1.54,1.14-2.25,1.57s-1.33,0.72-1.88,0.89
		c-0.55,0.17-1.12,0.25-1.72,0.25c-1.25,0-2.25-0.39-3.02-1.19c-0.76-0.79-1.14-1.83-1.14-3.12c0-1.26,0.32-2.64,0.96-4.14
		c0.64-1.5,1.52-2.93,2.63-4.29c1.11-1.36,2.32-2.48,3.63-3.36c1.92-1.29,4.06-1.93,6.44-1.93c1.76,0,3.01,0.21,3.77,0.64
		c0.75,0.43,1.13,1.15,1.13,2.18c0,1.08-0.35,2.07-1.04,2.99c-0.28,0.38-0.72,0.79-1.32,1.22l0.22,0.15
		c0.1,0.05,0.16,0.09,0.19,0.11c0.59,0.33,0.98,0.61,1.15,0.83c0.17,0.22,0.26,0.54,0.26,0.96c0,0.48-0.13,1.4-0.4,2.75
		s-0.58,2.63-0.94,3.84c-1.35,4.53-2.59,7.33-3.71,8.42c-0.27,0.25-0.8,0.51-1.58,0.78s-1.41,0.41-1.89,0.41
		c-0.38,0-0.69-0.13-0.91-0.4c-0.22-0.27-0.33-0.6-0.33-1.01c0-1.14,0.64-3.56,1.93-7.26c0.27-0.79,0.44-1.29,0.5-1.48l0.11-0.33
		L295.5,163.14z M298.51,156.22h-0.24h-0.26c-0.12,0-0.23,0-0.32,0.01c-0.09,0.01-0.19,0.02-0.3,0.03c-0.61,0-0.91-0.1-0.91-0.3
		c0-0.12,0.13-0.38,0.39-0.76c0.3-0.54,0.58-1.17,0.86-1.88c0.28-0.71,0.42-1.2,0.42-1.48c0-0.3-0.1-0.45-0.3-0.45
		c-0.19,0-0.41,0.1-0.69,0.3c-0.48,0.32-0.98,0.74-1.5,1.24c-0.52,0.51-1.01,1.04-1.46,1.6c-0.45,0.56-0.82,1.09-1.1,1.61
		c-0.42,0.79-0.78,1.73-1.08,2.81s-0.45,2.02-0.45,2.81c0,0.56,0.1,0.84,0.3,0.84c0.36,0,1.35-0.88,2.97-2.65
		c0.8-0.85,1.68-1.76,2.62-2.71L298.51,156.22z"/>
	<path fill="#1F3C57" d="M316.97,160.82l-0.32,0.26c-0.06,0.04-0.48,0.35-1.24,0.95c-1.48,1.16-2.71,2.08-3.67,2.76
		s-1.77,1.17-2.41,1.48c-0.64,0.32-1.16,0.47-1.56,0.47c-0.67,0-1.2-0.27-1.6-0.83c-0.4-0.55-0.6-1.26-0.6-2.14
		c0-1.48,0.22-3.21,0.67-5.19s1.04-3.92,1.8-5.84c0.83-2.13,1.84-3.43,3.04-3.9c0.42-0.19,0.92-0.28,1.48-0.28
		c0.78,0,1.41,0.24,1.89,0.72s0.72,1.12,0.72,1.91c-0.01,0.54-0.1,1.12-0.29,1.72c-0.19,0.61-0.48,1.33-0.89,2.17l-0.22,0.54
		c-1.06,2.25-1.6,3.62-1.6,4.11c0,0.28,0.1,0.43,0.3,0.43c0.19,0,0.43-0.13,0.72-0.39c0.3-0.26,0.75-0.74,1.37-1.43
		c0.38-0.47,0.93-1.06,1.63-1.76l0.69-0.69l0.59-0.63c1.25-1.24,2.27-2.13,3.07-2.68c0.79-0.55,1.45-0.83,1.97-0.83
		c0.99,0,1.49,0.86,1.49,2.58c0,0.36-0.04,1-0.13,1.91c-0.15,1.78-0.22,3.29-0.22,4.53c0.01,0.25,0.02,0.47,0.03,0.68
		c0.01,0.2,0.01,0.47,0.01,0.79c0.09,0.83,0.15,1.47,0.19,1.91l0.13,1.06c0,0.37-0.33,0.7-1,0.98c-0.67,0.28-1.44,0.43-2.32,0.43
		c-0.8,0-1.49-0.16-2.07-0.47c-0.58-0.32-1.01-0.78-1.31-1.4c-0.3-0.62-0.45-1.37-0.45-2.26c0-0.11,0.01-0.31,0.04-0.58
		C316.92,161.63,316.95,161.27,316.97,160.82z"/>
	<path fill="#1F3C57" d="M338.38,161.23v0.07l-0.07-0.07c-1.15,1.35-2.21,2.45-3.16,3.31c-0.96,0.86-1.84,1.51-2.65,1.94
		c-0.81,0.43-1.56,0.65-2.24,0.65c-1.39,0-2.53-0.46-3.43-1.39c-0.9-0.93-1.35-2.1-1.35-3.53c0-0.88,0.22-1.92,0.67-3.12
		c0.45-1.2,1.06-2.38,1.84-3.53c1.3-1.88,2.93-3.48,4.9-4.79c2.03-1.35,3.98-2.02,5.86-2.02c1.58,0,2.88,0.32,3.91,0.97
		c1.02,0.65,1.53,1.47,1.53,2.46c0,0.73-0.25,1.5-0.76,2.32c0.67,0,1.09,0.07,1.26,0.21c0.17,0.14,0.26,0.47,0.26,0.99
		c0-0.05-0.03,0.2-0.09,0.76c-0.07,1.22-0.11,2.37-0.11,3.43c0,0.56,0.01,0.98,0.02,1.26c0.01,0.29,0.04,0.61,0.07,0.98
		s0.07,0.67,0.11,0.89c0.1,0.58,0.26,1.16,0.48,1.72c-0.74,0.73-1.45,1.27-2.13,1.61c-0.68,0.34-1.37,0.51-2.08,0.51
		c-1.91,0-2.86-1.6-2.86-4.79C338.35,161.73,338.36,161.44,338.38,161.23z M339.5,156.98l-0.35,0.11c-0.89,0.25-1.53,0.37-1.93,0.37
		c-0.48,0-0.72-0.12-0.72-0.37c0-0.09,0.1-0.32,0.3-0.69c0.69-1.05,1.04-2.04,1.04-2.97c0-0.53-0.09-1.02-0.28-1.46
		c-0.19-0.44-0.39-0.66-0.61-0.66c-0.2,0-0.5,0.21-0.91,0.63c-1.15,1.25-2.06,2.53-2.74,3.84c-0.67,1.31-1.01,2.48-1.01,3.51
		c0,0.68,0.14,1.24,0.42,1.69c0.28,0.45,0.63,0.67,1.05,0.67c0.36,0,1.03-0.38,2.01-1.15c0.98-0.77,2.09-1.78,3.31-3.04l0.5-0.41
		L339.5,156.98z"/>
	<path fill="#1F3C57" d="M356.66,152.75c0.49-1.4,0.91-2.86,1.24-4.39c0.33-1.53,0.5-2.7,0.5-3.52c0-0.22-0.06-0.33-0.19-0.33
		c-0.2,0-0.54,0.44-1.04,1.33c-0.5,0.88-0.91,1.78-1.24,2.7c-0.72,2.02-1.27,3.69-1.66,5.02c-0.39,1.33-0.66,2.45-0.81,3.35
		c-0.15,0.9-0.22,1.82-0.22,2.76c0,0.8,0.09,1.39,0.27,1.76c0.18,0.37,0.47,0.56,0.86,0.56c0.68,0,1.44-0.3,2.28-0.9
		c0.84-0.6,1.6-1.39,2.28-2.37c0.53-0.73,0.95-1.09,1.24-1.09c0.38,0,0.58,0.3,0.58,0.91c0,1.32-0.42,2.62-1.24,3.88
		c-0.83,1.26-1.9,2.29-3.2,3.07c-1.3,0.79-2.64,1.18-4,1.18c-1.67,0-3.03-0.53-4.08-1.58c-1.05-1.05-1.58-2.42-1.58-4.12
		c0-1.39,0.3-3.01,0.89-4.87c0.59-1.86,1.39-3.74,2.38-5.62c1-1.89,2.09-3.6,3.28-5.13c1.19-1.53,2.36-2.71,3.53-3.53
		c0.72-0.53,1.51-0.8,2.39-0.8c0.67,0,1.27,0.21,1.82,0.62c0.54,0.41,0.96,0.99,1.26,1.73s0.45,1.56,0.45,2.47
		c0,1.94-0.38,3.84-1.14,5.7c-0.76,1.86-1.82,3.46-3.18,4.82c-0.64,0.66-1.26,1.17-1.86,1.54s-1.11,0.56-1.56,0.56
		c-0.43,0-0.65-0.17-0.65-0.5c0-0.19,0.16-0.54,0.48-1.06c0.43-0.68,0.94-1.71,1.52-3.08c0.05-0.14,0.1-0.28,0.17-0.44
		C356.5,153.23,356.57,153.02,356.66,152.75z"/>
	<path fill="#1F3C57" d="M369.57,167.43c0.73-0.04,1.39-0.39,1.99-1.07c0.6-0.67,0.9-1.41,0.9-2.2c0-0.54-0.18-0.98-0.54-1.3
		c-0.38-0.38-1.24-0.76-2.58-1.13c-1.97-0.57-3.25-1.21-3.84-1.91c-0.56-0.57-0.83-1.25-0.83-2.04c0-1.42,0.52-2.84,1.55-4.27
		c1.03-1.42,2.35-2.59,3.96-3.5c1.61-0.91,3.23-1.36,4.86-1.36c0.79,0,1.53,0.19,2.23,0.56c0.69,0.37,1.24,0.86,1.65,1.48
		s0.61,1.28,0.61,1.99c0,0.71-0.22,1.44-0.67,2.19c-0.45,0.75-1,1.38-1.68,1.88c-0.67,0.5-1.32,0.75-1.92,0.75
		c-0.35,0-0.65-0.07-0.9-0.22c-0.25-0.15-0.38-0.31-0.38-0.48c0-0.17,0.05-0.43,0.15-0.76c0.27-1.06,0.41-1.99,0.41-2.78
		c0-0.78-0.24-1.52-0.71-2.21c-0.61,0.42-1,0.75-1.19,1c-0.47,0.54-0.83,1.16-1.09,1.85c-0.29,0.7-0.43,1.37-0.43,2
		c0,0.45,0.1,0.8,0.31,1.07c0.21,0.27,0.54,0.49,1,0.68c0.46,0.19,1.17,0.39,2.11,0.61c1.57,0.38,2.68,0.76,3.32,1.11
		c0.15,0.09,0.38,0.27,0.69,0.54c0.47,0.51,0.71,1.16,0.71,1.97c0,0.85-0.27,1.72-0.8,2.59c-0.53,0.87-1.35,1.77-2.47,2.7
		c-1.19,1-2.37,1.72-3.54,2.15c-1.18,0.43-2.47,0.65-3.9,0.65c-1.37,0-2.45-0.27-3.24-0.82c-0.79-0.54-1.18-1.29-1.18-2.23
		c0-0.67,0.26-1.34,0.78-2.03s1.17-1.25,1.94-1.68c0.77-0.43,1.53-0.65,2.27-0.65c0.56,0,0.83,0.12,0.83,0.37
		c0,0.12-0.08,0.33-0.24,0.61c-0.48,0.87-0.72,1.66-0.72,2.39C369,166.46,369.19,166.96,369.57,167.43z"/>
</g>
<g>
</g>
<g>
</g>
<g>
</g>
<g>
</g>
<g>
</g>
<g>
</g>
<g>
</g>
<g>
</g>
<g>
</g>
<g>
</g>
<g>
</g>
<g>
</g>
<g>
</g>
<g>
</g>
<g>
</g>
</svg>
