<?xml version="1.0" encoding="utf-8"?>
<!-- Generator: Adobe Illustrator 24.3.0, SVG Export Plug-In . SVG Version: 6.00 Build 0)  -->
<svg version="1.1" id="Layer_1" xmlns="http://www.w3.org/2000/svg" xmlns:xlink="http://www.w3.org/1999/xlink" x="0px" y="0px"
	 viewBox="0 0 650 318" enable-background="new 0 0 650 318" xml:space="preserve">
<rect y="-1" fill="#FDF7DE" width="650" height="317"/>
<g>
	<g opacity="0.25">
		<rect x="73.71" y="141.69" fill="none" width="497.76" height="52.86"/>
		<path fill="none" stroke="#1F3C57" stroke-miterlimit="10" d="M145.04,141.72l-6.68,39.99H127.1l3.57-21.3
			c0.37-2.19,0.85-4.47,1.44-6.86c0.47-1.93,0.79-3.41,0.97-4.42c-0.23,0.61-0.58,1.52-1.03,2.75c-0.96,2.56-1.84,4.75-2.64,6.56
			l-10.35,23.26h-7.21l-2.75-23.26c-0.25-2.05-0.43-4.24-0.53-6.56c-0.08-1.39-0.16-2.46-0.23-3.22c-0.55,5.53-1.15,10.29-1.81,14.3
			l-3.13,18.75h-9.06l6.67-39.99h16.09l2.15,17.7c0.18,1.45,0.33,2.47,0.47,3.08c0.27-0.9,0.68-1.92,1.2-3.08l7.92-17.7H145.04z"/>
		<path fill="none" stroke="#1F3C57" stroke-miterlimit="10" d="M164.19,182.74c-4.73,0-8.83-1.55-12.3-4.64
			c-3.48-3.1-5.21-7.53-5.21-13.32c0-6.7,1.94-12.39,5.83-17.07c3.89-4.68,8.96-7.02,15.23-7.02c5.02,0,9.14,1.64,12.36,4.91
			c3.22,3.27,4.83,7.55,4.83,12.85c0,6.76-1.91,12.5-5.74,17.21C175.36,180.38,170.36,182.74,164.19,182.74z M164.27,173.42
			c2.07,0,3.64-0.87,4.72-2.62c1.07-1.75,1.92-4.31,2.55-7.69c0.62-3.38,0.94-5.66,0.94-6.86c0-2.05-0.47-3.6-1.42-4.66
			c-0.95-1.05-2.2-1.58-3.76-1.58c-2.99,0-5.09,2.08-6.3,6.24c-1.21,4.16-1.82,7.84-1.82,11.04
			C159.18,171.38,160.88,173.42,164.27,173.42z"/>
		<path fill="none" stroke="#1F3C57" stroke-miterlimit="10" d="M225.04,141.72l-17.97,39.99h-11.58l-7.8-39.99h12.21l4.42,25.81
			c0.27-0.76,1.54-3.81,3.81-9.14l7.15-16.67H225.04z"/>
		<path fill="none" stroke="#1F3C57" stroke-miterlimit="10" d="M252.81,172.51l-1.55,9.2h-29.47l6.68-39.99h28.74l-1.46,8.76
			h-17.16l-1.04,6.27h14.41l-1.46,8.67h-14.39l-1.17,7.09H252.81z"/>
		<path fill="none" stroke="#1F3C57" stroke-miterlimit="10" d="M299.6,157.75l-1.46,8.73h-12.81l-2.56,15.23h-11.61l6.68-39.99
			h28.18l-1.52,8.99h-16.52l-1.18,7.03H299.6z"/>
		<path fill="none" stroke="#1F3C57" stroke-miterlimit="10" d="M321.86,182.74c-4.73,0-8.83-1.55-12.3-4.64s-5.21-7.53-5.21-13.32
			c0-6.7,1.94-12.39,5.83-17.07c3.89-4.68,8.96-7.02,15.23-7.02c5.02,0,9.14,1.64,12.36,4.91c3.22,3.27,4.83,7.55,4.83,12.85
			c0,6.76-1.91,12.5-5.74,17.21S328.04,182.74,321.86,182.74z M321.95,173.42c2.07,0,3.64-0.87,4.72-2.62
			c1.07-1.75,1.92-4.31,2.55-7.69s0.94-5.66,0.94-6.86c0-2.05-0.47-3.6-1.42-4.66s-2.2-1.58-3.77-1.58c-2.99,0-5.09,2.08-6.3,6.24
			s-1.82,7.84-1.82,11.04C316.85,171.38,318.55,173.42,321.95,173.42z"/>
		<path fill="none" stroke="#1F3C57" stroke-miterlimit="10" d="M373.9,164.95l4.33,16.76H366.4l-3.52-15.21h-4.73l-2.55,15.21
			h-11.41l6.68-39.99h17.46c4.75,0,8.26,1.04,10.55,3.12s3.43,4.91,3.43,8.48C382.3,159.04,379.5,162.92,373.9,164.95z
			 M359.54,158.18h4.5c4.32,0,6.48-1.46,6.48-4.39c0-2.46-1.81-3.69-5.44-3.69h-4.18L359.54,158.18z"/>
		<path fill="none" stroke="#1F3C57" stroke-miterlimit="10" d="M438.69,141.72l-16.5,39.99h-10.47l-1.83-23.96l-2.81,7.38
			l-6.7,16.58h-9.82l-4.46-39.99h11.14l1.44,18.11l0.26,2.23l0.06,1.2c0.08,1.09,0.15,1.88,0.21,2.37c0.51-1.66,1.05-3.2,1.64-4.63
			l7.91-19.28h9.63l1.85,23.91c0.72-2.25,1.53-4.45,2.43-6.62l6.8-17.29H438.69z"/>
		<path fill="none" stroke="#1F3C57" stroke-miterlimit="10" d="M455.46,173.54h-10.71l-3.73,8.17h-9.91l18.51-39.99h12.55
			l6.21,39.99h-11.8L455.46,173.54z M454.75,165.27l-1.59-11.57l-5.27,11.57H454.75z"/>
		<path fill="none" stroke="#1F3C57" stroke-miterlimit="10" d="M501.58,164.95l4.33,16.76h-11.83l-3.52-15.21h-4.73l-2.55,15.21
			h-11.41l6.68-39.99H496c4.75,0,8.26,1.04,10.55,3.12s3.43,4.91,3.43,8.48C509.98,159.04,507.18,162.92,501.58,164.95z
			 M487.22,158.18h4.5c4.32,0,6.48-1.46,6.48-4.39c0-2.46-1.81-3.69-5.44-3.69h-4.18L487.22,158.18z"/>
		<path fill="none" stroke="#1F3C57" stroke-miterlimit="10" d="M511.71,181.71l6.68-39.99h13.33c3.22,0,5.83,0.23,7.84,0.7
			s3.94,1.48,5.82,3.05c1.88,1.56,3.29,3.55,4.25,5.96c0.96,2.41,1.44,5.14,1.44,8.19c0,3.95-0.73,7.49-2.2,10.63
			s-3.4,5.64-5.82,7.49s-4.77,2.97-7.06,3.37s-5.51,0.6-9.65,0.6H511.71z M525.17,172.75h2.69c2.83,0,4.91-0.4,6.26-1.2
			c1.34-0.8,2.5-2.29,3.48-4.46c0.97-2.17,1.46-4.79,1.46-7.86c0-5.89-2.24-8.84-6.71-8.84h-3.46L525.17,172.75z"/>
	</g>
	<g opacity="0.5">
		<rect x="74.71" y="139.69" fill="none" width="497.76" height="52.86"/>
		<path fill="none" stroke="#1F3C57" stroke-miterlimit="10" d="M146.04,139.72l-6.68,39.99H128.1l3.57-21.3
			c0.37-2.19,0.85-4.47,1.44-6.86c0.47-1.93,0.79-3.41,0.97-4.42c-0.23,0.61-0.58,1.52-1.03,2.75c-0.96,2.56-1.84,4.75-2.64,6.56
			l-10.35,23.26h-7.21l-2.75-23.26c-0.25-2.05-0.43-4.24-0.53-6.56c-0.08-1.39-0.16-2.46-0.23-3.22c-0.55,5.53-1.15,10.29-1.81,14.3
			l-3.13,18.75h-9.06l6.67-39.99h16.09l2.15,17.7c0.18,1.45,0.33,2.47,0.47,3.08c0.27-0.9,0.68-1.92,1.2-3.08l7.92-17.7H146.04z"/>
		<path fill="none" stroke="#1F3C57" stroke-miterlimit="10" d="M165.19,180.74c-4.73,0-8.83-1.55-12.3-4.64
			c-3.48-3.1-5.21-7.53-5.21-13.32c0-6.7,1.94-12.39,5.83-17.07c3.89-4.68,8.96-7.02,15.23-7.02c5.02,0,9.14,1.64,12.36,4.91
			c3.22,3.27,4.83,7.55,4.83,12.85c0,6.76-1.91,12.5-5.74,17.21C176.36,178.38,171.36,180.74,165.19,180.74z M165.27,171.42
			c2.07,0,3.64-0.87,4.72-2.62c1.07-1.75,1.92-4.31,2.55-7.69c0.62-3.38,0.94-5.66,0.94-6.86c0-2.05-0.47-3.6-1.42-4.66
			c-0.95-1.05-2.2-1.58-3.76-1.58c-2.99,0-5.09,2.08-6.3,6.24c-1.21,4.16-1.82,7.84-1.82,11.04
			C160.18,169.38,161.88,171.42,165.27,171.42z"/>
		<path fill="none" stroke="#1F3C57" stroke-miterlimit="10" d="M226.04,139.72l-17.97,39.99h-11.58l-7.8-39.99h12.21l4.42,25.81
			c0.27-0.76,1.54-3.81,3.81-9.14l7.15-16.67H226.04z"/>
		<path fill="none" stroke="#1F3C57" stroke-miterlimit="10" d="M253.81,170.51l-1.55,9.2h-29.47l6.68-39.99h28.74l-1.46,8.76
			h-17.16l-1.04,6.27h14.41l-1.46,8.67h-14.39l-1.17,7.09H253.81z"/>
		<path fill="none" stroke="#1F3C57" stroke-miterlimit="10" d="M300.6,155.75l-1.46,8.73h-12.81l-2.56,15.23h-11.61l6.68-39.99
			h28.18l-1.52,8.99h-16.52l-1.18,7.03H300.6z"/>
		<path fill="none" stroke="#1F3C57" stroke-miterlimit="10" d="M322.86,180.74c-4.73,0-8.83-1.55-12.3-4.64s-5.21-7.53-5.21-13.32
			c0-6.7,1.94-12.39,5.83-17.07c3.89-4.68,8.96-7.02,15.23-7.02c5.02,0,9.14,1.64,12.36,4.91c3.22,3.27,4.83,7.55,4.83,12.85
			c0,6.76-1.91,12.5-5.74,17.21S329.04,180.74,322.86,180.74z M322.95,171.42c2.07,0,3.64-0.87,4.72-2.62s1.92-4.31,2.55-7.69
			s0.94-5.66,0.94-6.86c0-2.05-0.47-3.6-1.42-4.66s-2.2-1.58-3.77-1.58c-2.99,0-5.09,2.08-6.3,6.24s-1.82,7.84-1.82,11.04
			C317.85,169.38,319.55,171.42,322.95,171.42z"/>
		<path fill="none" stroke="#1F3C57" stroke-miterlimit="10" d="M374.9,162.95l4.33,16.76H367.4l-3.52-15.21h-4.73l-2.55,15.21
			h-11.41l6.68-39.99h17.46c4.75,0,8.26,1.04,10.55,3.12s3.43,4.91,3.43,8.48C383.3,157.04,380.5,160.92,374.9,162.95z
			 M360.54,156.18h4.5c4.32,0,6.48-1.46,6.48-4.39c0-2.46-1.81-3.69-5.44-3.69h-4.18L360.54,156.18z"/>
		<path fill="none" stroke="#1F3C57" stroke-miterlimit="10" d="M439.69,139.72l-16.5,39.99h-10.47l-1.83-23.96l-2.81,7.38
			l-6.7,16.58h-9.82l-4.46-39.99h11.14l1.44,18.11l0.26,2.23l0.06,1.2c0.08,1.09,0.15,1.88,0.21,2.37c0.51-1.66,1.05-3.2,1.64-4.63
			l7.91-19.28h9.63l1.85,23.91c0.72-2.25,1.53-4.45,2.43-6.62l6.8-17.29H439.69z"/>
		<path fill="none" stroke="#1F3C57" stroke-miterlimit="10" d="M456.46,171.54h-10.71l-3.73,8.17h-9.91l18.51-39.99h12.55
			l6.21,39.99h-11.8L456.46,171.54z M455.75,163.27l-1.59-11.57l-5.27,11.57H455.75z"/>
		<path fill="none" stroke="#1F3C57" stroke-miterlimit="10" d="M502.58,162.95l4.33,16.76h-11.83l-3.52-15.21h-4.73l-2.55,15.21
			h-11.41l6.68-39.99H497c4.75,0,8.26,1.04,10.55,3.12s3.43,4.91,3.43,8.48C510.98,157.04,508.18,160.92,502.58,162.95z
			 M488.22,156.18h4.5c4.32,0,6.48-1.46,6.48-4.39c0-2.46-1.81-3.69-5.44-3.69h-4.18L488.22,156.18z"/>
		<path fill="none" stroke="#1F3C57" stroke-miterlimit="10" d="M512.71,179.71l6.68-39.99h13.33c3.22,0,5.83,0.23,7.84,0.7
			s3.94,1.48,5.82,3.05c1.88,1.56,3.29,3.55,4.25,5.96c0.96,2.41,1.44,5.14,1.44,8.19c0,3.95-0.73,7.49-2.2,10.63
			s-3.4,5.64-5.82,7.49s-4.77,2.97-7.06,3.37s-5.51,0.6-9.65,0.6H512.71z M526.17,170.75h2.69c2.83,0,4.91-0.4,6.26-1.2
			c1.34-0.8,2.5-2.29,3.48-4.46c0.97-2.17,1.46-4.79,1.46-7.86c0-5.89-2.24-8.84-6.71-8.84h-3.46L526.17,170.75z"/>
	</g>
	<g opacity="0.75">
		<rect x="75.71" y="136.69" fill="none" width="497.76" height="52.86"/>
		<path fill="none" stroke="#1F3C57" stroke-miterlimit="10" d="M147.04,136.72l-6.68,39.99H129.1l3.57-21.3
			c0.37-2.19,0.85-4.47,1.44-6.86c0.47-1.93,0.79-3.41,0.97-4.42c-0.23,0.61-0.58,1.52-1.03,2.75c-0.96,2.56-1.84,4.75-2.64,6.56
			l-10.35,23.26h-7.21l-2.75-23.26c-0.25-2.05-0.43-4.24-0.53-6.56c-0.08-1.39-0.16-2.46-0.23-3.22c-0.55,5.53-1.15,10.29-1.81,14.3
			l-3.13,18.75h-9.06l6.67-39.99h16.09l2.15,17.7c0.18,1.45,0.33,2.47,0.47,3.08c0.27-0.9,0.68-1.92,1.2-3.08l7.92-17.7H147.04z"/>
		<path fill="none" stroke="#1F3C57" stroke-miterlimit="10" d="M166.19,177.74c-4.73,0-8.83-1.55-12.3-4.64
			c-3.48-3.1-5.21-7.53-5.21-13.32c0-6.7,1.94-12.39,5.83-17.07c3.89-4.68,8.96-7.02,15.23-7.02c5.02,0,9.14,1.64,12.36,4.91
			c3.22,3.27,4.83,7.55,4.83,12.85c0,6.76-1.91,12.5-5.74,17.21C177.36,175.38,172.36,177.74,166.19,177.74z M166.27,168.42
			c2.07,0,3.64-0.87,4.72-2.62c1.07-1.75,1.92-4.31,2.55-7.69c0.62-3.38,0.94-5.66,0.94-6.86c0-2.05-0.47-3.6-1.42-4.66
			c-0.95-1.05-2.2-1.58-3.76-1.58c-2.99,0-5.09,2.08-6.3,6.24c-1.21,4.16-1.82,7.84-1.82,11.04
			C161.18,166.38,162.88,168.42,166.27,168.42z"/>
		<path fill="none" stroke="#1F3C57" stroke-miterlimit="10" d="M227.04,136.72l-17.97,39.99h-11.58l-7.8-39.99h12.21l4.42,25.81
			c0.27-0.76,1.54-3.81,3.81-9.14l7.15-16.67H227.04z"/>
		<path fill="none" stroke="#1F3C57" stroke-miterlimit="10" d="M254.81,167.51l-1.55,9.2h-29.47l6.68-39.99h28.74l-1.46,8.76
			h-17.16l-1.04,6.27h14.41l-1.46,8.67h-14.39l-1.17,7.09H254.81z"/>
		<path fill="none" stroke="#1F3C57" stroke-miterlimit="10" d="M301.6,152.75l-1.46,8.73h-12.81l-2.56,15.23h-11.61l6.68-39.99
			h28.18l-1.52,8.99h-16.52l-1.18,7.03H301.6z"/>
		<path fill="none" stroke="#1F3C57" stroke-miterlimit="10" d="M323.86,177.74c-4.73,0-8.83-1.55-12.3-4.64s-5.21-7.53-5.21-13.32
			c0-6.7,1.94-12.39,5.83-17.07c3.89-4.68,8.96-7.02,15.23-7.02c5.02,0,9.14,1.64,12.36,4.91c3.22,3.27,4.83,7.55,4.83,12.85
			c0,6.76-1.91,12.5-5.74,17.21S330.04,177.74,323.86,177.74z M323.95,168.42c2.07,0,3.64-0.87,4.72-2.62s1.92-4.31,2.55-7.69
			s0.94-5.66,0.94-6.86c0-2.05-0.47-3.6-1.42-4.66s-2.2-1.58-3.76-1.58c-2.99,0-5.09,2.08-6.3,6.24s-1.82,7.84-1.82,11.04
			C318.85,166.38,320.55,168.42,323.95,168.42z"/>
		<path fill="none" stroke="#1F3C57" stroke-miterlimit="10" d="M375.9,159.95l4.33,16.76H368.4l-3.52-15.21h-4.73l-2.55,15.21
			h-11.41l6.68-39.99h17.46c4.75,0,8.26,1.04,10.55,3.12s3.43,4.91,3.43,8.48C384.3,154.04,381.5,157.92,375.9,159.95z
			 M361.54,153.18h4.5c4.32,0,6.48-1.46,6.48-4.39c0-2.46-1.81-3.69-5.44-3.69h-4.18L361.54,153.18z"/>
		<path fill="none" stroke="#1F3C57" stroke-miterlimit="10" d="M440.69,136.72l-16.5,39.99h-10.47l-1.83-23.96l-2.81,7.38
			l-6.7,16.58h-9.82l-4.46-39.99h11.14l1.44,18.11l0.26,2.23l0.06,1.2c0.08,1.09,0.15,1.88,0.21,2.37c0.51-1.66,1.05-3.2,1.64-4.63
			l7.91-19.28h9.63l1.85,23.91c0.72-2.25,1.53-4.45,2.43-6.62l6.8-17.29H440.69z"/>
		<path fill="none" stroke="#1F3C57" stroke-miterlimit="10" d="M457.46,168.54h-10.71l-3.73,8.17h-9.91l18.51-39.99h12.55
			l6.21,39.99h-11.8L457.46,168.54z M456.75,160.27l-1.59-11.57l-5.27,11.57H456.75z"/>
		<path fill="none" stroke="#1F3C57" stroke-miterlimit="10" d="M503.58,159.95l4.33,16.76h-11.83l-3.52-15.21h-4.73l-2.55,15.21
			h-11.41l6.68-39.99H498c4.75,0,8.26,1.04,10.55,3.12s3.43,4.91,3.43,8.48C511.98,154.04,509.18,157.92,503.58,159.95z
			 M489.22,153.18h4.5c4.32,0,6.48-1.46,6.48-4.39c0-2.46-1.81-3.69-5.44-3.69h-4.18L489.22,153.18z"/>
		<path fill="none" stroke="#1F3C57" stroke-miterlimit="10" d="M513.71,176.71l6.68-39.99h13.33c3.22,0,5.83,0.23,7.84,0.7
			s3.94,1.48,5.82,3.05c1.88,1.56,3.29,3.55,4.25,5.96c0.96,2.41,1.44,5.14,1.44,8.19c0,3.95-0.73,7.49-2.2,10.63
			s-3.4,5.64-5.82,7.49s-4.77,2.97-7.06,3.37s-5.51,0.6-9.65,0.6H513.71z M527.17,167.75h2.69c2.83,0,4.91-0.4,6.26-1.2
			c1.34-0.8,2.5-2.29,3.48-4.46c0.97-2.17,1.46-4.79,1.46-7.86c0-5.89-2.24-8.84-6.71-8.84h-3.46L527.17,167.75z"/>
	</g>
	<g>
		<rect x="76.71" y="135.69" fill="none" width="497.76" height="52.86"/>
		<path fill="#1F3C57" d="M148.04,135.72l-6.68,39.99H130.1l3.57-21.3c0.37-2.19,0.85-4.47,1.44-6.86c0.47-1.93,0.79-3.41,0.97-4.42
			c-0.23,0.61-0.58,1.52-1.03,2.75c-0.96,2.56-1.84,4.75-2.64,6.56l-10.35,23.26h-7.21l-2.75-23.26c-0.25-2.05-0.43-4.24-0.53-6.56
			c-0.08-1.39-0.16-2.46-0.23-3.22c-0.55,5.53-1.15,10.29-1.81,14.3l-3.13,18.75h-9.06l6.67-39.99h16.09l2.15,17.7
			c0.18,1.45,0.33,2.47,0.47,3.08c0.27-0.9,0.68-1.92,1.2-3.08l7.92-17.7H148.04z"/>
		<path fill="#1F3C57" d="M167.19,176.74c-4.73,0-8.83-1.55-12.3-4.64c-3.48-3.1-5.21-7.53-5.21-13.32c0-6.7,1.94-12.39,5.83-17.07
			c3.89-4.68,8.96-7.02,15.23-7.02c5.02,0,9.14,1.64,12.36,4.91c3.22,3.27,4.83,7.55,4.83,12.85c0,6.76-1.91,12.5-5.74,17.21
			C178.36,174.38,173.36,176.74,167.19,176.74z M167.27,167.42c2.07,0,3.64-0.87,4.72-2.62c1.07-1.75,1.92-4.31,2.55-7.69
			c0.62-3.38,0.94-5.66,0.94-6.86c0-2.05-0.47-3.6-1.42-4.66c-0.95-1.05-2.2-1.58-3.76-1.58c-2.99,0-5.09,2.08-6.3,6.24
			c-1.21,4.16-1.82,7.84-1.82,11.04C162.18,165.38,163.88,167.42,167.27,167.42z"/>
		<path fill="#1F3C57" d="M228.04,135.72l-17.97,39.99h-11.58l-7.8-39.99h12.21l4.42,25.81c0.27-0.76,1.54-3.81,3.81-9.14
			l7.15-16.67H228.04z"/>
		<path fill="#1F3C57" d="M255.81,166.51l-1.55,9.2h-29.47l6.68-39.99h28.74l-1.46,8.76h-17.16l-1.04,6.27h14.41l-1.46,8.67h-14.39
			l-1.17,7.09H255.81z"/>
		<path fill="#1F3C57" d="M302.6,151.75l-1.46,8.73h-12.81l-2.56,15.23h-11.61l6.68-39.99h28.18l-1.52,8.99h-16.52l-1.18,7.03H302.6
			z"/>
		<path fill="#1F3C57" d="M324.86,176.74c-4.73,0-8.83-1.55-12.3-4.64s-5.21-7.53-5.21-13.32c0-6.7,1.94-12.39,5.83-17.07
			c3.89-4.68,8.96-7.02,15.23-7.02c5.02,0,9.14,1.64,12.36,4.91c3.22,3.27,4.83,7.55,4.83,12.85c0,6.76-1.91,12.5-5.74,17.21
			S331.04,176.74,324.86,176.74z M324.95,167.42c2.07,0,3.64-0.87,4.72-2.62s1.92-4.31,2.55-7.69s0.94-5.66,0.94-6.86
			c0-2.05-0.47-3.6-1.42-4.66s-2.2-1.58-3.76-1.58c-2.99,0-5.09,2.08-6.3,6.24s-1.82,7.84-1.82,11.04
			C319.85,165.38,321.55,167.42,324.95,167.42z"/>
		<path fill="#1F3C57" d="M376.9,158.95l4.33,16.76H369.4l-3.52-15.21h-4.73l-2.55,15.21h-11.41l6.68-39.99h17.46
			c4.75,0,8.26,1.04,10.55,3.12s3.43,4.91,3.43,8.48C385.3,153.04,382.5,156.92,376.9,158.95z M362.54,152.18h4.5
			c4.32,0,6.48-1.46,6.48-4.39c0-2.46-1.81-3.69-5.44-3.69h-4.18L362.54,152.18z"/>
		<path fill="#1F3C57" d="M441.69,135.72l-16.5,39.99h-10.47l-1.83-23.96l-2.81,7.38l-6.7,16.58h-9.82l-4.46-39.99h11.14l1.44,18.11
			l0.26,2.23l0.06,1.2c0.08,1.09,0.15,1.89,0.21,2.37c0.51-1.66,1.05-3.2,1.64-4.63l7.91-19.28h9.63l1.85,23.91
			c0.72-2.25,1.53-4.45,2.43-6.62l6.8-17.29H441.69z"/>
		<path fill="#1F3C57" d="M458.46,167.54h-10.71l-3.73,8.17h-9.91l18.51-39.99h12.55l6.21,39.99h-11.8L458.46,167.54z
			 M457.75,159.27l-1.59-11.57l-5.27,11.57H457.75z"/>
		<path fill="#1F3C57" d="M504.58,158.95l4.33,16.76h-11.83l-3.52-15.21h-4.73l-2.55,15.21h-11.41l6.68-39.99H499
			c4.75,0,8.26,1.04,10.55,3.12s3.43,4.91,3.43,8.48C512.98,153.04,510.18,156.92,504.58,158.95z M490.22,152.18h4.5
			c4.32,0,6.48-1.46,6.48-4.39c0-2.46-1.81-3.69-5.44-3.69h-4.18L490.22,152.18z"/>
		<path fill="#1F3C57" d="M514.71,175.71l6.68-39.99h13.33c3.22,0,5.83,0.23,7.84,0.7s3.94,1.48,5.82,3.05
			c1.88,1.56,3.29,3.55,4.25,5.96c0.96,2.41,1.44,5.14,1.44,8.19c0,3.95-0.73,7.49-2.2,10.63s-3.4,5.64-5.82,7.49
			s-4.77,2.97-7.06,3.37s-5.51,0.6-9.65,0.6H514.71z M528.17,166.75h2.69c2.83,0,4.91-0.4,6.26-1.2c1.34-0.8,2.5-2.29,3.48-4.46
			c0.97-2.17,1.46-4.79,1.46-7.86c0-5.89-2.24-8.84-6.71-8.84h-3.46L528.17,166.75z"/>
	</g>
	<g opacity="0.23">
		<rect x="73.71" y="145.69" fill="none" width="497.76" height="52.86"/>
		<path fill="#1F3C57" d="M145.04,145.72l-6.68,39.99H127.1l3.57-21.3c0.37-2.19,0.85-4.47,1.44-6.86c0.47-1.93,0.79-3.41,0.97-4.42
			c-0.23,0.61-0.58,1.52-1.03,2.75c-0.96,2.56-1.84,4.75-2.64,6.56l-10.35,23.26h-7.21l-2.75-23.26c-0.25-2.05-0.43-4.24-0.53-6.56
			c-0.08-1.39-0.16-2.46-0.23-3.22c-0.55,5.53-1.15,10.29-1.81,14.3l-3.13,18.75h-9.06l6.67-39.99h16.09l2.15,17.7
			c0.18,1.45,0.33,2.47,0.47,3.08c0.27-0.9,0.68-1.92,1.2-3.08l7.92-17.7H145.04z"/>
		<path fill="#1F3C57" d="M164.19,186.74c-4.73,0-8.83-1.55-12.3-4.64c-3.48-3.1-5.21-7.53-5.21-13.32c0-6.7,1.94-12.39,5.83-17.07
			c3.89-4.68,8.96-7.02,15.23-7.02c5.02,0,9.14,1.64,12.36,4.91c3.22,3.27,4.83,7.55,4.83,12.85c0,6.76-1.91,12.5-5.74,17.21
			C175.36,184.38,170.36,186.74,164.19,186.74z M164.27,177.42c2.07,0,3.64-0.87,4.72-2.62c1.07-1.75,1.92-4.31,2.55-7.69
			c0.62-3.38,0.94-5.66,0.94-6.86c0-2.05-0.47-3.6-1.42-4.66c-0.95-1.05-2.2-1.58-3.76-1.58c-2.99,0-5.09,2.08-6.3,6.24
			c-1.21,4.16-1.82,7.84-1.82,11.04C159.18,175.38,160.88,177.42,164.27,177.42z"/>
		<path fill="#1F3C57" d="M225.04,145.72l-17.97,39.99h-11.58l-7.8-39.99h12.21l4.42,25.81c0.27-0.76,1.54-3.81,3.81-9.14
			l7.15-16.67H225.04z"/>
		<path fill="#1F3C57" d="M252.81,176.51l-1.55,9.2h-29.47l6.68-39.99h28.74l-1.46,8.76h-17.16l-1.04,6.27h14.41l-1.46,8.67h-14.39
			l-1.17,7.09H252.81z"/>
		<path fill="#1F3C57" d="M299.6,161.75l-1.46,8.73h-12.81l-2.56,15.23h-11.61l6.68-39.99h28.18l-1.52,8.99h-16.52l-1.18,7.03H299.6
			z"/>
		<path fill="#1F3C57" d="M321.86,186.74c-4.73,0-8.83-1.55-12.3-4.64s-5.21-7.53-5.21-13.32c0-6.7,1.94-12.39,5.83-17.07
			c3.89-4.68,8.96-7.02,15.23-7.02c5.02,0,9.14,1.64,12.36,4.91c3.22,3.27,4.83,7.55,4.83,12.85c0,6.76-1.91,12.5-5.74,17.21
			S328.04,186.74,321.86,186.74z M321.95,177.42c2.07,0,3.64-0.87,4.72-2.62c1.07-1.75,1.92-4.31,2.55-7.69s0.94-5.66,0.94-6.86
			c0-2.05-0.47-3.6-1.42-4.66s-2.2-1.58-3.77-1.58c-2.99,0-5.09,2.08-6.3,6.24s-1.82,7.84-1.82,11.04
			C316.85,175.38,318.55,177.42,321.95,177.42z"/>
		<path fill="#1F3C57" d="M373.9,168.95l4.33,16.76H366.4l-3.52-15.21h-4.73l-2.55,15.21h-11.41l6.68-39.99h17.46
			c4.75,0,8.26,1.04,10.55,3.12s3.43,4.91,3.43,8.48C382.3,163.04,379.5,166.92,373.9,168.95z M359.54,162.18h4.5
			c4.32,0,6.48-1.46,6.48-4.39c0-2.46-1.81-3.69-5.44-3.69h-4.18L359.54,162.18z"/>
		<path fill="#1F3C57" d="M438.69,145.72l-16.5,39.99h-10.47l-1.83-23.96l-2.81,7.38l-6.7,16.58h-9.82l-4.46-39.99h11.14l1.44,18.11
			l0.26,2.23l0.06,1.2c0.08,1.09,0.15,1.88,0.21,2.37c0.51-1.66,1.05-3.2,1.64-4.63l7.91-19.28h9.63l1.85,23.91
			c0.72-2.25,1.53-4.45,2.43-6.62l6.8-17.29H438.69z"/>
		<path fill="#1F3C57" d="M455.46,177.54h-10.71l-3.73,8.17h-9.91l18.51-39.99h12.55l6.21,39.99h-11.8L455.46,177.54z
			 M454.75,169.27l-1.59-11.57l-5.27,11.57H454.75z"/>
		<path fill="#1F3C57" d="M501.58,168.95l4.33,16.76h-11.83l-3.52-15.21h-4.73l-2.55,15.21h-11.41l6.68-39.99H496
			c4.75,0,8.26,1.04,10.55,3.12s3.43,4.91,3.43,8.48C509.98,163.04,507.18,166.92,501.58,168.95z M487.22,162.18h4.5
			c4.32,0,6.48-1.46,6.48-4.39c0-2.46-1.81-3.69-5.44-3.69h-4.18L487.22,162.18z"/>
		<path fill="#1F3C57" d="M511.71,185.71l6.68-39.99h13.33c3.22,0,5.83,0.23,7.84,0.7s3.94,1.48,5.82,3.05
			c1.88,1.56,3.29,3.55,4.25,5.96c0.96,2.41,1.44,5.14,1.44,8.19c0,3.95-0.73,7.49-2.2,10.63s-3.4,5.64-5.82,7.49
			s-4.77,2.97-7.06,3.37s-5.51,0.6-9.65,0.6H511.71z M525.17,176.75h2.69c2.83,0,4.91-0.4,6.26-1.2c1.34-0.8,2.5-2.29,3.48-4.46
			c0.97-2.17,1.46-4.79,1.46-7.86c0-5.89-2.24-8.84-6.71-8.84h-3.46L525.17,176.75z"/>
	</g>
</g>
<g>
</g>
<g>
</g>
<g>
</g>
<g>
</g>
<g>
</g>
<g>
</g>
<g>
</g>
<g>
</g>
<g>
</g>
<g>
</g>
<g>
</g>
<g>
</g>
<g>
</g>
<g>
</g>
<g>
</g>
</svg>
