<?xml version="1.0" encoding="utf-8"?>
<!-- Generator: Adobe Illustrator 24.3.0, SVG Export Plug-In . SVG Version: 6.00 Build 0)  -->
<svg version="1.1" id="Layer_1" xmlns="http://www.w3.org/2000/svg" xmlns:xlink="http://www.w3.org/1999/xlink" x="0px" y="0px"
	 viewBox="0 0 650 318" style="enable-background:new 0 0 650 318;" xml:space="preserve">
<style type="text/css">
	.st0{fill:#FEC69A;}
	.st1{fill:none;}
	.st2{fill:#1F3C57;}
	.st3{opacity:0.5;}
	.st4{opacity:0.2;}
</style>
<g>
	<rect class="st0" width="650" height="318"/>
</g>
<g>
	<rect x="141.6" y="148.2" class="st1" width="369.4" height="47.8"/>
	<path class="st2" d="M259.2,152.7l0.2-0.5c-0.3,0-0.6,0-0.8,0.1s-0.5,0.1-0.8,0.3c-0.4,0.1-0.6,0.2-0.8,0.2c-0.2,0-0.3-0.1-0.4-0.2
		s-0.2-0.3-0.2-0.5c0-0.4,0.1-0.8,0.5-1.2s0.7-0.7,1.1-0.9c0.6-0.2,1.3-0.4,2.3-0.6s1.8-0.2,2.8-0.2c1,0,2,0.1,2.8,0.2
		s1.5,0.4,2.2,0.7s1.2,0.7,1.7,1.2s0.9,1,1.1,1.7c0.3,0.6,0.4,1.3,0.4,2c0,0.6-0.1,1.4-0.4,2.2s-0.6,1.6-1.1,2.3s-1,1.4-1.5,1.9
		c-0.6,0.6-1.4,1.1-2.4,1.6c-1,0.4-1.9,0.6-2.7,0.6c-0.3,0-0.6-0.1-0.9-0.2c-0.3-0.1-0.4-0.3-0.4-0.4c0-0.3,0.1-0.5,0.3-0.8
		s0.6-0.5,1.1-0.9c0.5-0.3,0.9-0.6,1.3-1c0.5-0.5,0.9-1.1,1.1-1.7c0.2-0.6,0.3-1.3,0.3-2.2c0-0.8-0.1-1.5-0.4-2s-0.7-1.1-1.3-1.5
		l-2,6.5l-0.4,1.1c-0.2,0.4-0.4,1.2-0.6,2.3c-0.5,1.9-0.9,3.2-1.4,3.9c-0.2,0.3-0.4,0.6-0.7,0.9c-0.5,0.4-1.1,0.8-1.8,1.1
		s-1.3,0.5-1.9,0.5c-0.3,0-0.6-0.1-0.8-0.3s-0.3-0.5-0.3-0.8c0-0.4,0.1-1,0.3-1.8s0.6-2.1,1.2-4.1l0.3-0.8l0.3-0.9L259.2,152.7z"/>
	<path class="st2" d="M284.6,162.8l-5.4,0v0.4c0,0.7,0.2,1.4,0.6,1.9s0.9,0.9,1.4,0.9c0.5,0,1.2-0.2,2.2-0.6s2.1-0.9,3.3-1.6
		l0.5-0.3c0.4-0.2,0.6-0.3,0.7-0.4c0.6-0.4,0.9-0.5,1.1-0.5c0.2,0,0.3,0.2,0.3,0.5c0,0.4-0.1,0.8-0.2,1.2s-0.3,0.9-0.5,1.3
		c-0.2,0.4-0.4,0.7-0.6,0.9c-0.6,0.5-1.5,1-2.9,1.6s-2.7,1-4.1,1.4c-0.5,0.1-0.9,0.1-1.3,0.1c-1.3,0-2.6-0.3-3.7-0.8
		c-1.1-0.5-2-1.3-2.6-2.2c-0.6-0.9-0.9-2-0.9-3.2c0-1,0.2-2,0.6-3.2s1-2.3,1.7-3.4s1.5-2.2,2.5-3.1c0.8-0.8,1.7-1.6,2.6-2.2
		s1.9-1.2,2.9-1.6c0.9-0.4,1.8-0.5,2.5-0.5c1.2,0,2.2,0.3,3.1,1s1.3,1.5,1.3,2.5c0,0.4-0.1,0.9-0.2,1.4s-0.4,0.9-0.6,1.3
		c-0.3,0.4-0.7,0.8-1.2,1.2s-1.1,0.7-1.8,1c-0.8,0.3-1.5,0.5-2.1,0.5s-0.9-0.1-0.9-0.4c0-0.2,0.2-0.4,0.5-0.8c0.4-0.3,0.7-0.7,1-1.3
		c0.3-0.6,0.6-1.2,0.8-2s0.4-1.4,0.4-1.8c0-0.4-0.1-0.5-0.3-0.5c-0.3,0-1,0.4-1.9,1.1s-1.6,1.5-2.1,2.2c-0.5,0.7-0.9,1.4-1.2,2.1
		s-0.5,1.4-0.6,2.1h7.8c0.9,0,1.3,0.2,1.3,0.7c0,0.4-0.5,1.1-1.4,2C286.3,162.4,285.4,162.8,284.6,162.8z"/>
	<path class="st2" d="M295.4,153.9l0.4-1c-0.3,0-0.6,0.1-0.9,0.1c-0.2,0-0.5,0.1-0.8,0.1c-0.5,0-0.7-0.2-0.7-0.7
		c0-0.2,0.1-0.4,0.2-0.7s0.3-0.5,0.4-0.6c0.3-0.3,1.1-0.6,2.1-0.8c1.1-0.2,2.4-0.3,3.8-0.3c1.1,0,2.2,0.1,3.2,0.4s1.9,0.7,2.6,1.2
		s1.3,1.1,1.7,1.8c0.4,0.7,0.6,1.4,0.6,2.2c0,0.9-0.2,1.7-0.5,2.4s-0.9,1.4-1.5,2c-0.4,0.4-0.9,0.6-1.2,0.9s-0.9,0.4-1.6,0.6
		c0.2,0.3,0.4,0.6,0.5,0.8c0.1,0.2,0.4,0.4,0.7,0.8c0.9,0.8,2.1,1.5,3.8,2.1c0.1,0,0.2,0.1,0.3,0.1c-0.2,0.8-0.3,1.4-0.5,1.8
		s-0.4,0.8-0.7,1.2c-0.6,0.8-1.3,1.2-2.2,1.2c-0.5,0-1-0.2-1.7-0.5s-1.2-0.8-1.7-1.2c-0.3-0.4-0.7-0.8-1-1.3s-0.6-1-0.9-1.5
		c-0.3-0.6-0.5-1.1-0.8-1.7s-0.4-1-0.5-1.4c0-0.1,0-0.2,0-0.3c0-0.2,0.1-0.4,0.2-0.5s0.3-0.2,0.6-0.3c0.4-0.2,0.8-0.3,1.1-0.5
		s0.6-0.5,1.1-0.9c0.5-0.5,0.9-1.2,1.1-1.9s0.4-1.4,0.4-2.2c0-0.9-0.2-1.5-0.6-2s-1-0.8-1.9-1c-0.8,3.1-1.7,5.9-2.5,8.6l-0.3,1.1
		c-0.5,1.8-0.9,3.1-1.3,3.9c-0.4,0.9-0.7,1.4-1,1.8s-0.9,0.7-1.6,1s-1.3,0.5-1.7,0.5c-0.8,0-1.2-0.4-1.2-1.4c0-0.4,0.1-1,0.3-1.9
		c0.2-0.9,0.6-2.1,1-3.5c0.5-1.5,0.9-2.9,1.4-4.3S294.9,155.4,295.4,153.9z"/>
	<path class="st2" d="M314.2,160.1c-0.8-0.9-1.4-1.6-1.8-2.3s-0.5-1.4-0.5-2.1c0-1.1,0.3-2.2,1-3.2c0.7-1,1.6-1.8,2.8-2.4
		c1.2-0.6,2.4-0.9,3.7-0.9c1.5,0,2.7,0.3,3.5,0.9s1.2,1.5,1.2,2.6c0,0.6-0.1,1.1-0.4,1.7s-0.7,1.1-1.2,1.6c-0.4,0.4-0.7,0.6-1,0.8
		s-0.6,0.3-0.8,0.3c-0.2,0-0.4-0.2-0.4-0.6c0,0,0-0.1,0.1-0.4c0.1-0.5,0.1-0.9,0.1-1.2c0-0.5-0.1-1-0.2-1.5
		c-0.1-0.5-0.4-0.9-0.6-1.3c-0.2-0.4-0.5-0.5-0.7-0.5c-0.1,0-0.2,0.1-0.4,0.2c-0.3,0.3-0.5,0.6-0.6,1s-0.2,0.8-0.2,1.1
		c0,0.4,0.1,0.9,0.2,1.2c0.1,0.4,0.3,0.8,0.7,1.1c0.3,0.4,0.7,0.8,1.2,1.3c0.8,0.7,1.5,1.4,1.9,1.9c0.4,0.6,0.8,1.1,1,1.7
		c0.2,0.6,0.3,1.1,0.3,1.8c0,1.1-0.3,2.2-0.9,3.3s-1.4,1.9-2.4,2.6c-1,0.6-2,1-3,1c-1,0-2-0.2-2.9-0.6s-1.8-1-2.7-1.9
		c-0.9-0.9-1.3-1.6-1.3-2.3c0-0.4,0.2-0.8,0.6-1.2c0.4-0.4,0.9-0.7,1.4-1c0.6-0.3,1-0.4,1.4-0.4c0.2,0,0.4,0.1,0.6,0.2
		c0.2,0.1,0.3,0.3,0.4,0.6c0.1,0.3,0.2,0.6,0.4,1.1c0.2,0.6,0.4,1.1,0.5,1.5c0.2,0.3,0.4,0.6,0.7,0.9c0.3,0.3,0.6,0.4,0.9,0.4
		c0.4,0,0.7-0.1,0.9-0.5c0.2-0.3,0.3-0.7,0.3-1.3c0-0.8-0.3-1.7-0.9-2.5c-0.2-0.3-0.4-0.5-0.6-0.8c-0.2-0.2-0.7-0.6-1.4-1.3
		C315,160.8,314.7,160.5,314.2,160.1z"/>
	<path class="st2" d="M334.3,153.6c-0.7,0.7-1.2,1.2-1.5,1.7c-0.3,0.4-0.6,1.1-1,1.9c-0.3,0.6-0.5,1.2-0.6,1.9
		c-0.1,0.6-0.2,1.3-0.2,2.2c0,1.3,0.1,2.4,0.4,3.2c0.2,0.9,0.6,1.5,1.1,1.9c0.5,0.4,1,0.6,1.7,0.6c0.5,0,1.1-0.2,1.7-0.6
		c0.6-0.4,1.1-0.9,1.5-1.6c0.5-0.6,0.8-1.4,1.1-2.2s0.4-1.6,0.4-2.3c0-1.3-0.5-2.7-1.4-4.2c-0.3-0.6-0.5-1-0.5-1.2
		c0-0.4,0.2-0.8,0.7-1.2c0.5-0.5,1.1-0.9,1.7-1.3s1.1-0.6,1.5-0.6c0.2,0,0.4,0.1,0.7,0.1c0.2,0.1,0.4,0.2,0.5,0.4
		c0.3,0.3,0.6,0.9,0.8,1.8s0.3,1.8,0.3,2.8c0,2.3-0.5,4.4-1.4,6.4c-0.9,1.9-2.2,3.5-3.8,4.6s-3.4,1.7-5.2,1.7
		c-1.1,0-2.2-0.2-3.2-0.6s-1.9-0.9-2.6-1.6c-1.1-1.1-1.7-2.6-1.7-4.4c0-1.1,0.2-2.2,0.6-3.4s1-2.3,1.7-3.4s1.5-2.1,2.5-3.1
		c0.9-0.9,1.9-1.7,2.9-2.2c0.9-0.5,1.9-0.9,2.9-1.2s2-0.4,2.8-0.4c1.1,0,1.7,0.2,1.7,0.5c0,0.1-0.1,0.4-0.4,0.6
		c-0.4,0.4-0.8,0.7-1.1,0.9c-0.3,0.2-0.8,0.4-1.6,0.6c-0.8,0.2-1.4,0.4-1.7,0.6S334.9,153.1,334.3,153.6z"/>
	<path class="st2" d="M346.5,162.5l1-2.8l1.4-3.5c0.5-1.3,0.9-2.3,1.3-3c0.3-0.5,0.4-0.9,0.4-1.1c0-0.3-0.2-0.6-0.7-0.9
		c-0.3-0.2-0.5-0.4-0.5-0.5c0-0.2,0.3-0.4,0.9-0.6c0.5-0.2,1.1-0.4,1.8-0.6s1.2-0.2,1.6-0.2c0.8,0,1.4,0.2,1.9,0.7
		c0.5,0.5,1.1,2,1.8,4.6c0.3,1.1,0.6,2.1,1,3.1s0.6,1.7,0.9,2.1c0.1,0.2,0.2,0.5,0.5,0.9c0.3-1,0.7-2.4,1.1-4
		c0.6-2.6,1.2-4.4,1.8-5.3c0.2-0.3,0.4-0.6,0.6-0.8c0.4-0.4,0.8-0.6,1.3-0.9c0.5-0.2,0.9-0.3,1.4-0.3c0.3,0,0.5,0.1,0.6,0.2
		s0.2,0.4,0.2,0.8c0,0.3,0,0.5-0.1,0.6c-0.1,0.5-0.3,1.2-0.5,2c-0.2,0.8-0.6,1.8-1,3.1s-1,2.8-1.7,4.6l-0.2,0.5
		c-0.1,0.2-0.1,0.4-0.2,0.6c-1.2,3.3-2.1,5.5-2.7,6.4c-0.1,0.2-0.3,0.4-0.5,0.6c-0.3,0.3-0.6,0.4-0.9,0.4c-0.8,0-1.6-0.8-2.4-2.4
		c-1.6-2.9-2.8-5.8-3.7-8.9c-0.2-0.6-0.3-1.1-0.4-1.6h-0.1l-1.8,5.6c0,0.1-0.1,0.2-0.1,0.4c-0.1,0.1-0.1,0.3-0.1,0.4
		c0,0.1-0.1,0.2-0.1,0.4s-0.1,0.2-0.1,0.3c-0.3,1-0.6,1.7-0.8,2.2c-0.2,0.5-0.4,0.9-0.6,1.2c-0.2,0.3-0.4,0.6-0.8,1
		c-0.5,0.5-1,0.8-1.7,1.1s-1.2,0.4-1.8,0.4c-0.5,0-0.8-0.2-0.8-0.6c0-0.3,0.2-0.8,0.7-1.6c0.5-0.9,1.1-2,1.7-3.5
		C346.1,163.4,346.3,163,346.5,162.5z"/>
	<path class="st2" d="M376.1,151.6l-0.9-1.6c0.2-0.2,0.4-0.3,0.6-0.4c0.8-0.2,1.7-0.4,2.7-0.4c1.1,0,1.9,0.3,2.5,0.9
		c0.5,0.5,0.9,1.3,1.2,2.3c0.3,1,0.6,2.3,0.9,4.1c0.1,0.9,0.3,1.6,0.4,2.1c0.3,1.3,0.6,2.1,0.7,2.4c0.1,0.4,0.3,0.9,0.6,1.7
		c0.1,0.2,0.2,0.5,0.4,0.9c0.2,0.4,0.3,0.8,0.5,1.1c0.3,0.8,0.8,1.8,1.5,3c-0.8,0.6-1.5,1-2.1,1.2s-1.1,0.4-1.5,0.4
		c-0.6,0-1.1-0.1-1.4-0.3s-0.7-0.6-1-1.1c-0.4-0.7-0.7-1.6-1.1-2.7c0-0.1-0.1-0.2-0.1-0.4s-0.1-0.4-0.2-0.5c-1.1,0.5-2,0.7-2.7,0.7
		c-0.4,0-0.7,0-0.9,0c-0.2,0-1.3-0.1-3.1-0.1l-0.1,0.3c-0.5,1.1-1,2-1.5,2.6s-1,1-1.6,1.3s-1.4,0.4-2.3,0.4c-0.5,0-0.9-0.1-1.1-0.2
		s-0.3-0.3-0.3-0.6c0-0.3,0.5-1.2,1.6-2.7c0.4-0.5,0.7-0.9,0.9-1.2c-1-0.2-1.5-0.6-1.5-1.1c0-0.4,0.4-1.1,1.2-1.9
		c0.4-0.4,0.8-0.7,1.1-0.8s0.9-0.2,1.8-0.2c0.8-1.4,1.3-2.4,1.5-2.8s0.5-0.9,0.8-1.5s0.7-1.3,1.2-2.1S375.4,152.9,376.1,151.6z
		 M377.4,155.5l-2.7,5.7h4L377.4,155.5L377.4,155.5z"/>
	<path class="st2" d="M396.5,156.9l-0.5,1.2c-0.6,1.5-1.2,3-1.8,4.5c-0.3,0.7-0.7,2-1.2,3.8c0.8-0.1,1.9-0.2,3.3-0.5
		c0.9-0.2,1.4-0.3,1.6-0.3c0.3,0,0.5,0.1,0.5,0.4c0,0.3-0.2,0.8-0.6,1.4c-0.4,0.6-0.8,1.1-1.3,1.5c-0.3,0.3-0.8,0.5-1.4,0.6
		s-1.6,0.2-3,0.2c-1.3,0-2.2,0-2.9-0.1c0,0-0.2-0.1-0.5-0.1c-0.6-0.2-0.8-0.7-0.8-1.5c0-0.5,0.1-1.5,0.5-2.9
		c0.3-1.4,0.8-3.2,1.3-5.3c1.3-4.7,2.3-7.6,3-8.8c0.2-0.4,0.5-0.7,0.8-0.9s0.8-0.4,1.3-0.5c0.5-0.1,1.2-0.2,1.9-0.2
		c0.7,0,1.1,0.1,1.4,0.3s0.4,0.5,0.4,0.9c0,0.4-0.2,1.1-0.5,2.2S397.2,155.2,396.5,156.9z"/>
</g>
<g class="st3">
	<rect x="168" y="181.4" class="st1" width="315" height="45.8"/>
	<path class="st2" d="M239.3,199v22.4h-6c-0.5-1.7-1-3.1-1.6-4.2c-2.5,3.2-6.1,4.8-11,4.8c-5.2,0-9.4-1.8-12.7-5.4
		c-3.3-3.6-5-8.5-5-14.6c0-6,1.6-11,4.8-15.1c3.2-4.1,8-6.1,14.3-6.1c4.8,0,8.6,1.2,11.5,3.6c2.9,2.4,4.8,5.9,5.6,10.3l-11.9,1.2
		c-0.6-4.2-2.4-6.2-5.5-6.2c-4,0-6,3.8-6,11.5c0,4.6,0.6,7.7,1.9,9.2c1.3,1.5,2.9,2.2,4.7,2.2c1.5,0,2.8-0.4,3.8-1.4
		c1-0.9,1.6-2.1,1.6-3.7h-6.6V199L239.3,199L239.3,199z"/>
	<path class="st2" d="M281.7,221.4h-13.6l-5.8-15.3h-3.9v15.3h-12.3v-40H267c4.6,0,8.2,1.1,10.7,3.2s3.8,5,3.8,8.5
		c0,2.3-0.5,4.3-1.4,6.1s-2.8,3.3-5.7,4.7L281.7,221.4z M258.4,197.6h5.2c1.5,0,2.8-0.3,3.7-1s1.4-1.6,1.4-2.8
		c0-2.6-1.6-3.8-4.7-3.8h-5.6V197.6z"/>
	<path class="st2" d="M304.6,222c-5.6,0-10.2-1.9-13.8-5.6s-5.3-8.7-5.3-15c0-6,1.7-10.9,5.1-14.8s8.1-5.8,14.1-5.8
		c5.6,0,10.1,1.8,13.6,5.5s5.3,8.6,5.3,14.7c0,6.4-1.8,11.4-5.3,15.3S310.2,222,304.6,222z M304.6,212.9c2.1,0,3.6-0.9,4.5-2.7
		c0.9-1.8,1.4-5.1,1.4-9.9c0-6.9-1.9-10.4-5.6-10.4c-4,0-6,4-6,11.9C298.8,209.2,300.7,212.9,304.6,212.9z"/>
	<path class="st2" d="M378.2,181.4l-10.6,40h-10.3l-5.6-22.1l-5.3,22.1h-10.8l-10.6-40h11.5l5.6,23l5.5-23h9.6l5.9,23.1l5.6-23.1
		H378.2z"/>
	<path class="st2" d="M400.2,191v30.4h-11.6V191h-8.3v-9.6h28.2v9.6H400.2z"/>
	<path class="st2" d="M446.2,181.4v40H434v-15.6h-9.4v15.6h-12.3v-40h12.3v14.7h9.4v-14.7L446.2,181.4L446.2,181.4z"/>
</g>
<g>
	<rect x="166.5" y="176.7" class="st1" width="315" height="45.8"/>
	<path class="st2" d="M237.8,194.3v22.4h-6c-0.5-1.7-1-3.1-1.6-4.2c-2.5,3.2-6.1,4.8-11,4.8c-5.2,0-9.4-1.8-12.7-5.4
		c-3.3-3.6-5-8.5-5-14.6c0-6,1.6-11,4.8-15.1c3.2-4.1,8-6.1,14.3-6.1c4.8,0,8.6,1.2,11.5,3.6c2.9,2.4,4.8,5.9,5.6,10.3l-11.9,1.2
		c-0.6-4.2-2.4-6.2-5.5-6.2c-4,0-6,3.8-6,11.5c0,4.6,0.6,7.7,1.9,9.2c1.3,1.5,2.9,2.2,4.7,2.2c1.5,0,2.8-0.4,3.8-1.4
		c1-0.9,1.6-2.1,1.6-3.7h-6.6v-8.5L237.8,194.3L237.8,194.3z"/>
	<path class="st2" d="M280.2,216.7h-13.6l-5.8-15.3h-3.9v15.3h-12.3v-40h20.9c4.6,0,8.2,1.1,10.7,3.2s3.8,5,3.8,8.5
		c0,2.3-0.5,4.3-1.4,6.1s-2.8,3.3-5.7,4.7L280.2,216.7z M256.8,192.9h5.2c1.5,0,2.8-0.3,3.7-1s1.4-1.6,1.4-2.8
		c0-2.6-1.6-3.8-4.7-3.8h-5.6V192.9z"/>
	<path class="st2" d="M303.1,217.3c-5.6,0-10.2-1.9-13.8-5.6s-5.3-8.7-5.3-15c0-6,1.7-10.9,5.1-14.8s8.1-5.8,14.1-5.8
		c5.6,0,10.1,1.8,13.6,5.5s5.3,8.6,5.3,14.7c0,6.4-1.8,11.4-5.3,15.3S308.7,217.3,303.1,217.3z M303,208.2c2.1,0,3.6-0.9,4.5-2.7
		c0.9-1.8,1.4-5.1,1.4-9.9c0-6.9-1.9-10.4-5.6-10.4c-4,0-6,4-6,11.9C297.2,204.5,299.2,208.2,303,208.2z"/>
	<path class="st2" d="M376.6,176.7l-10.6,40h-10.3l-5.6-22.1l-5.3,22.1h-10.8l-10.6-40H335l5.6,23l5.5-23h9.6l5.9,23.1l5.6-23.1
		H376.6z"/>
	<path class="st2" d="M398.7,186.3v30.4h-11.6v-30.4h-8.3v-9.6H407v9.6H398.7z"/>
	<path class="st2" d="M444.7,176.7v40h-12.3v-15.6H423v15.6h-12.3v-40H423v14.7h9.4v-14.7L444.7,176.7L444.7,176.7z"/>
</g>
<path class="st2" d="M231,148"/>
<g class="st4">
	<rect x="137.9" y="105.4" class="st1" width="369.4" height="47.8"/>
	<path class="st2" d="M240.6,145.4v-40h20.3c4.2,0,7.3,1.1,9.2,3.2c1.9,2.1,2.9,4.6,2.9,7.3c0,2-0.6,3.8-1.7,5.4s-2.8,2.7-5,3.3
		c5.2,1.2,7.8,4.4,7.8,9.3c0,3-0.9,5.6-2.7,7.9s-5.7,3.5-11.7,3.5L240.6,145.4L240.6,145.4z M251.9,120.8h5.7c1.4,0,2.4-0.4,3-1.1
		s0.9-1.5,0.9-2.3c0-2.2-1.4-3.3-4.1-3.3h-5.5V120.8z M251.9,136.5h6c1.5,0,2.6-0.4,3.3-1.1c0.7-0.7,1-1.6,1-2.5s-0.3-1.8-1-2.5
		s-1.9-1.2-3.7-1.2h-5.6L251.9,136.5L251.9,136.5z"/>
	<path class="st2" d="M311.8,105.4v26.5c0,5-1.5,8.6-4.5,10.8s-6.9,3.3-11.6,3.3c-5,0-9.1-1.1-12.1-3.2s-4.6-5.6-4.6-10.3v-27.1
		h12.5v25.7c0,1.9,0.4,3.3,1.2,4.2s2.1,1.3,3.9,1.3c1.5,0,2.7-0.3,3.6-0.9c1-0.6,1.5-1.4,1.7-2.1c0.2-0.8,0.3-2.4,0.3-4.7v-23.4
		L311.8,105.4L311.8,105.4z"/>
	<path class="st2" d="M331,105.4v40h-12.3v-40H331z"/>
	<path class="st2" d="M366.3,135.6v9.8h-28v-40h12.3v30.2L366.3,135.6L366.3,135.6z"/>
	<path class="st2" d="M370.9,145.4v-40h15.5c6.7,0,11.8,2,15.1,6s5,8.6,5,13.8c0,6-1.8,10.8-5.4,14.6c-3.6,3.7-8.2,5.6-14,5.6
		L370.9,145.4L370.9,145.4z M383.1,136.2h3.2c2,0,3.8-1,5.1-3c1.4-2,2.1-4.7,2.1-8.1c0-2.9-0.6-5.4-1.9-7.5s-3-3.2-5.4-3.2h-3.2
		L383.1,136.2L383.1,136.2z"/>
</g>
<g>
	<rect x="138.2" y="98.2" class="st1" width="369.4" height="47.8"/>
	<path class="st2" d="M240.9,138.2v-40h20.3c4.2,0,7.3,1.1,9.2,3.2c1.9,2.1,2.9,4.6,2.9,7.3c0,2-0.6,3.8-1.7,5.4s-2.8,2.7-5,3.3
		c5.2,1.2,7.8,4.4,7.8,9.3c0,3-0.9,5.6-2.7,8s-5.7,3.5-11.7,3.5L240.9,138.2L240.9,138.2z M252.2,113.5h5.7c1.4,0,2.4-0.4,3-1.1
		s0.9-1.5,0.9-2.3c0-2.2-1.4-3.3-4.1-3.3h-5.5L252.2,113.5L252.2,113.5z M252.2,129.3h6c1.5,0,2.6-0.4,3.3-1.1c0.7-0.7,1-1.6,1-2.5
		c0-0.9-0.3-1.8-1-2.5s-1.9-1.2-3.7-1.2h-5.6V129.3z"/>
	<path class="st2" d="M312.2,98.2v26.5c0,5-1.5,8.6-4.5,10.8s-6.9,3.3-11.6,3.3c-5,0-9.1-1.1-12.1-3.2s-4.6-5.6-4.6-10.3V98.2h12.5
		v25.7c0,1.9,0.4,3.3,1.2,4.2c0.8,0.9,2.1,1.3,3.9,1.3c1.5,0,2.7-0.3,3.6-0.9c1-0.6,1.5-1.3,1.7-2.2c0.2-0.8,0.3-2.4,0.3-4.7V98.2
		H312.2z"/>
	<path class="st2" d="M331.3,98.2v40H319v-40H331.3z"/>
	<path class="st2" d="M366.6,128.4v9.8h-28v-40h12.3v30.2H366.6z"/>
	<path class="st2" d="M371.2,138.2v-40h15.5c6.7,0,11.8,2,15.1,6s5,8.6,5,13.8c0,6-1.8,10.8-5.4,14.6c-3.6,3.7-8.2,5.6-14,5.6
		L371.2,138.2L371.2,138.2z M383.5,129h3.2c2,0,3.8-1,5.1-3c1.4-2,2.1-4.7,2.1-8.1c0-2.9-0.6-5.4-1.9-7.5s-3-3.2-5.4-3.2h-3.2
		L383.5,129L383.5,129z"/>
</g>
<g>
	<polygon class="st1" points="303.7,271 305.7,271 305.7,271 	"/>
</g>
</svg>
