<?xml version="1.0" encoding="utf-8"?>
<!-- Generator: Adobe Illustrator 24.3.0, SVG Export Plug-In . SVG Version: 6.00 Build 0)  -->
<svg version="1.1" id="Layer_1" xmlns="http://www.w3.org/2000/svg" xmlns:xlink="http://www.w3.org/1999/xlink" x="0px" y="0px"
	 viewBox="0 0 128 128" style="enable-background:new 0 0 128 128;" xml:space="preserve">
<style type="text/css">
	.st0{fill:#FDCAB6;}
	.st1{fill:#EAB39B;}
	.st2{fill:#FDA170;}
	.st3{fill:#FEC69A;}
	.st4{fill:#FDF7DE;}
	.st5{fill:#1F3C57;}
</style>
<g id="Mental_Health">
	<path class="st0" d="M112.8,71.8c0,2.5-1.8,4.7-4.3,5.2l-5.9,1.2c0,7-0.1,5.9,0.4,6.6c1,1.4,0.8,3.4-0.5,4.5c-1.2,1.2-2.6,1-4.4,1
		c2,0,3.6,1.6,3.6,3.6c0,0.9-0.4,1.8-1,2.5c0,6,0.7,10.3-3.7,14.6c-3.2,3.2-7.9,4.4-12.2,3.2l-12.5-3.6V127H23.6
		C25,98,27,87.7,20.2,71.4c-3.3-7.8-5-16.2-5-24.7c0-13.5,4.3-24.2,12.9-32.9c26.7-26.5,76.4-9.9,76.4,30.9c0,6.1,0.2,6.9-0.5,8.1
		c-1,1.8-0.9,4.1,0.3,5.8C112.1,69.2,112.8,69.5,112.8,71.8z"/>
	<path class="st1" d="M90.3,45.7c-1.1,16.8-15.6,29.5-32.4,28.4c-15.3-1-27.4-13.1-28.4-28.4c-1.5,16.4,12,32.5,30.4,32.5
		c16.8,0,30.4-13.6,30.4-30.4C90.4,47,90.4,46.4,90.3,45.7z"/>
	<circle class="st2" cx="59.9" cy="43.7" r="30.5"/>
	<path class="st3" d="M59.9,74.2c-18.7,0-32.4-16.7-30.3-33.5C31.3,57.5,46.3,69.7,63,68c14.4-1.5,25.8-12.8,27.2-27.2
		C92.3,57.5,78.7,74.2,59.9,74.2z"/>
	<polygon class="st4" points="80.2,37.6 66,37.6 66,23.4 53.8,23.4 53.8,37.6 39.6,37.6 39.6,49.8 53.8,49.8 53.8,64 66,64 66,49.8 
		80.2,49.8 	"/>
	<path class="st1" d="M72.1,120.9v6.1H23.6c0,0,0.1-2.4,0.3-6.1L72.1,120.9z"/>
	<rect x="53.8" y="57.9" class="st3" width="12.2" height="6.1"/>
	<path class="st5" d="M112.6,68.1L105.3,58c-1-1.4-1.1-3.1-0.3-4.6c0.9-1.8,0.7-2.9,0.7-8.7C105.7,21.6,87.8,0,59.1,0
		C34.4,0.1,14.4,20,14.2,44.7c0,9,0.9,17,4.9,26.7c3.7,8.7,5.4,18.1,4.9,27.5c-0.6,12.1-1.4,27.9-1.4,28c0,0.6,0.4,1,1,1.1
		c0.6,0,1-0.4,1-1c1.3-28.2,3.6-39.1-3.5-56c-4.1-9.8-4.9-17.5-4.9-26.3C16.4,21.1,35.5,2.1,59.1,2c27.2,0,44.5,20.4,44.5,42.7
		c0,6,0.2,6.6-0.5,7.8c-1.1,2.1-0.9,4.7,0.5,6.6l7.3,10.2c1.4,2,0.9,4.7-1,6.1c-0.5,0.4-1.1,0.6-1.7,0.7l-5.9,1.2
		c-0.5,0.1-0.8,0.5-0.8,1c0,6.6-0.1,6.3,0.2,6.7c0.6,0.9,1.2,1.8,0.5,3.2c-0.5,0.8-1.3,1.4-2.3,1.3h-7.6c-0.6,0-1,0.4-1,1s0.4,1,1,1
		h5.6c1.4,0,2.6,1.2,2.6,2.6c0,0.7-0.3,1.3-0.8,1.8c-0.4,0.4-0.3,0.3-0.3,6.5c0,6.3-5.1,11.5-11.5,11.5c-2.1,0-2.2-0.2-15.7-4
		c-0.5-0.1-1.1,0.2-1.2,0.7c0,0.1,0,0.2,0,0.3V127c0,0.6,0.4,1,1,1s1-0.4,1-1v-14.9c11.4,3.3,12.4,3.7,15,3.7
		c7.4,0,13.5-6,13.5-13.5v-5.4c1.4-1.7,1.4-4.1,0-5.8c2.4-0.9,3.5-3.5,2.6-5.9c-0.1-0.3-0.3-0.6-0.5-0.9c-0.3-0.4-0.2,0.4-0.2-5.3
		l5.1-1c3.4-0.7,5.7-4,5-7.5C113.5,69.7,113.1,68.9,112.6,68.1z"/>
	<path class="st5" d="M80.3,36.6H67V23.4c0-0.6-0.4-1-1-1H53.8c-0.6,0-1,0.4-1,1v13.2H39.6c-0.6,0-1,0.4-1,1v12.2c0,0.6,0.4,1,1,1
		h13.2V64c0,0.6,0.4,1,1,1H66c0.6,0,1-0.4,1-1V50.8h13.3c0.6,0,1-0.4,1-1V37.6C81.3,37,80.8,36.6,80.3,36.6z M79.3,48.8H66
		c-0.6,0-1,0.4-1,1V63H54.8V49.8c0-0.6-0.4-1-1-1H40.6V38.6h13.2c0.6,0,1-0.4,1-1V24.4H65v13.2c0,0.6,0.4,1,1,1h13.3V48.8z"/>
	<path class="st5" d="M91.4,43.7c0-17.4-14.1-31.5-31.5-31.5S28.4,26.3,28.4,43.7s14.1,31.5,31.5,31.5c0,0,0,0,0,0
		C77.3,75.1,91.4,61.1,91.4,43.7z M59.9,73.2c-16.3,0-29.5-13.2-29.5-29.5s13.2-29.5,29.5-29.5c16.3,0,29.5,13.2,29.5,29.5
		c0,0,0,0,0,0C89.4,60,76.2,73.1,59.9,73.2z"/>
</g>
</svg>
